<?xml version="1.0" encoding="UTF-8"?>
<svg version="1.1" xmlns="http://www.w3.org/2000/svg" width="500" height="500">
<path d="M0 0 C0.48073975 0.85658203 0.48073975 0.85658203 0.97119141 1.73046875 C7.73332626 13.76692528 14.57642234 25.74993062 21.55517578 37.66210938 C26.08916052 45.41187169 30.55544087 53.19879491 35 61 C40.06023021 69.88005871 45.15737128 78.73705079 50.3125 87.5625 C50.87839844 88.53614502 51.44429687 89.50979004 52.02734375 90.51293945 C54.76665289 95.2187381 57.53880551 99.89807994 60.38671875 104.5390625 C61.17598755 105.84508423 61.17598755 105.84508423 61.98120117 107.17749023 C62.96502434 108.80338414 63.96307632 110.42078705 64.9777832 112.02758789 C65.40792725 112.74422607 65.83807129 113.46086426 66.28125 114.19921875 C66.66345703 114.81627686 67.04566406 115.43333496 67.43945312 116.0690918 C68.45490419 119.56700227 66.40252302 122.22800547 64.80175781 125.2980957 C64.35670898 126.08273193 63.91166016 126.86736816 63.453125 127.67578125 C62.94539551 128.57337158 62.43766602 129.47096191 61.91455078 130.39575195 C61.36524902 131.35827881 60.81594727 132.32080566 60.25 133.3125 C59.67362793 134.32723389 59.09725586 135.34196777 58.50341797 136.38745117 C53.26959599 145.5780878 47.93975958 154.71188214 42.59765625 163.83984375 C36.98321325 173.43942238 31.4419968 183.08135951 25.89111328 192.71777344 C22.76319852 198.14659942 19.63141552 203.57319281 16.5 209 C15.24998121 211.16665583 13.99998122 213.3333225 12.75 215.5 C5.25 228.5 -2.25 241.5 -9.75 254.5 C-10.36939453 255.5737085 -10.98878906 256.64741699 -11.62695312 257.75366211 C-12.870123 259.90830624 -14.11360975 262.06276757 -15.35742188 264.21704102 C-18.24983147 269.22754121 -21.13935227 274.23962635 -24.01696777 279.25863647 C-25.02548314 281.01728749 -26.0350477 282.77533209 -27.04492188 284.53320312 C-28.30350518 286.72472231 -29.56016987 288.91734504 -30.81445312 291.11132812 C-31.96562927 293.11398876 -33.14090524 295.10301749 -34.34155273 297.07641602 C-36.07622399 299.97176579 -36.07622399 299.97176579 -37.23852539 303.17163086 C-38.81363694 306.69391641 -39.94241664 308.61279137 -43 311 C-49.92502375 312.82538416 -57.36401635 312.02705051 -64.4375 311.6875 C-66.42890202 311.63228672 -68.42045025 311.58210291 -70.41210938 311.53710938 C-75.27836014 311.41623459 -80.13757587 311.22668274 -85 311 C-86.10478537 308.16690656 -87.2088433 305.3335331 -88.3125 302.5 C-88.62123047 301.70851563 -88.92996094 300.91703125 -89.24804688 300.1015625 C-89.86896066 298.50679446 -90.48235969 296.9090811 -91.08837891 295.30859375 C-91.66705732 293.84314569 -92.29007721 292.3938598 -92.97021484 290.97265625 C-95.62859246 285.14270071 -94.66597772 281.04028557 -93 275 C-92.71797729 273.88915039 -92.43595459 272.77830078 -92.14538574 271.63378906 C-91.11990673 267.62295649 -90.05534086 263.62385392 -88.984375 259.625 C-88.57700877 258.09495119 -88.16990135 256.56483346 -87.76303101 255.03465271 C-86.66032255 250.89087898 -85.55366551 246.74816919 -84.44620514 242.6056633 C-83.50567324 239.08556654 -82.56746263 235.56485277 -81.62924385 232.04413891 C-73.92625355 203.13935001 -66.17752996 174.24675902 -58.41772461 145.35717773 C-57.50371689 141.95427147 -56.58972983 138.55135965 -55.67578125 135.1484375 C-55.3350335 133.87972526 -55.3350335 133.87972526 -54.98740196 132.58538246 C-51.18498612 118.42636414 -47.39275025 104.26463608 -43.60546875 90.1015625 C-43.34057648 89.1109614 -43.0756842 88.1203603 -42.80276489 87.09974098 C-40.21895574 77.43672216 -37.63603248 67.77346668 -35.05372524 58.11004639 C-34.10835928 54.5724924 -33.16280033 51.03499001 -32.2172184 47.49749374 C-31.37232493 44.33618171 -30.52790605 41.174743 -29.68369579 38.01324844 C-29.30359013 36.59257301 -28.92235903 35.1721981 -28.53986835 33.75216293 C-27.72055121 30.71014518 -26.91567188 27.66629736 -26.14379883 24.61184692 C-25.76481445 23.13372025 -25.76481445 23.13372025 -25.37817383 21.62573242 C-25.0673864 20.37695564 -25.0673864 20.37695564 -24.75032043 19.10295105 C-23.50567555 15.61453844 -21.29459149 13.90763092 -18.375 11.75 C-17.58138062 11.14696045 -17.58138062 11.14696045 -16.77172852 10.53173828 C-15.19451847 9.3366444 -13.5974507 8.16790076 -12 7 C-10.31036093 5.6276294 -8.62258857 4.2529542 -6.9375 2.875 C-3.38018433 0 -3.38018433 0 0 0 Z " fill="#5692F5" transform="translate(404,131)"/>
<path d="M0 0 C0.61319975 0.06132644 1.2263995 0.12265287 1.85818106 0.18583769 C3.12358077 0.3123852 3.12358077 0.3123852 4.41454411 0.44148922 C5.33140967 0.53575534 6.24827524 0.63002146 7.19292462 0.72714412 C8.91867791 0.89489235 10.6463304 1.04546679 12.37594306 1.16713822 C29.56372408 2.47021661 38.43026633 11.12190749 50.12329102 23.02124023 C52.03935725 24.91230726 53.95827454 26.8000276 55.88101196 28.68426514 C60.52701113 33.25194075 65.12921677 37.86136624 69.71631248 42.48811787 C73.44916936 46.25180515 77.19719621 49.99974364 80.95622063 53.73729134 C81.4938401 54.27188164 82.03145958 54.80647194 82.58537055 55.35726194 C83.67802896 56.44365933 84.77071619 57.53002773 85.86343192 58.61636747 C96.07696156 68.77410038 106.24037693 78.98081212 116.38750642 89.20481605 C125.07113039 97.95174226 133.79865093 106.65278284 142.55932617 115.32250977 C152.76466186 125.4219167 162.93955871 135.55054311 173.06971496 145.72539669 C174.15264783 146.81292243 175.23562513 147.90040393 176.31864738 148.98784065 C176.851327 149.52270725 177.38400661 150.05757385 177.93282803 150.60864852 C181.66544083 154.35243764 185.41870564 158.07469699 189.18091011 161.7887249 C193.77378418 166.32377741 198.33278775 170.88998256 202.8528691 175.49763315 C205.15483521 177.84256323 207.4726456 180.16609865 209.82334328 182.4623127 C221.30883075 193.70398782 227.77114441 202.31355692 228.00755775 218.77943909 C228.00506369 219.51222419 228.00256963 220.24500929 228 221 C228.0074172 222.06758822 228.0074172 222.06758822 228.01498425 223.15674388 C228.0222378 224.77115402 228.01323438 226.38562781 228 228 C210.24126012 228.2103105 192.4828437 228.36898163 174.72312737 228.46630955 C166.47677846 228.51270361 158.2312036 228.57594388 149.98535156 228.67895508 C142.79757773 228.76870539 135.61036443 228.82673388 128.42204583 228.84679645 C124.61606519 228.85852364 120.81168798 228.88604511 117.00622177 228.95157051 C113.42210047 229.01278313 109.84023823 229.03148316 106.25564384 229.01796913 C104.31704212 229.02161617 102.37868531 229.06999292 100.4407196 229.11978149 C92.10342314 229.03093567 92.10342314 229.03093567 88.93146133 226.06735039 C87.37105659 223.76849793 86.16111826 221.52029934 85 219 C84.2488364 217.67051061 83.48998738 216.34528977 82.71875 215.02734375 C81.97614464 213.6657063 81.23669207 212.3023458 80.5 210.9375 C76.54822097 203.72498842 72.46958623 196.59606568 68.3125 189.5 C63.36831732 181.05731393 58.44771407 172.60196465 53.5625 164.125 C52.94028564 163.04541016 52.31807129 161.96582031 51.67700195 160.85351562 C50.41488483 158.6631748 49.15292215 156.47274498 47.89111328 154.28222656 C44.76319852 148.85340058 41.63141552 143.42680719 38.5 138 C37.24998121 135.83334417 35.99998122 133.6666775 34.75 131.5 C34.13125 130.4275 33.5125 129.355 32.875 128.25 C12.25 92.5 12.25 92.5 10.37280273 89.24609375 C9.13023981 87.0923828 7.88756511 84.93873633 6.64477539 82.78515625 C3.74685377 77.76315738 0.84996651 72.74057193 -2.04275513 67.71557617 C-3.05947198 65.94954478 -4.07655658 64.18372569 -5.09375 62.41796875 C-6.36400873 60.21265845 -7.63359018 58.00695784 -8.90234375 55.80078125 C-9.48242188 54.79402344 -10.0625 53.78726563 -10.66015625 52.75 C-11.21203613 51.78449219 -11.76391602 50.81898438 -12.33251953 49.82421875 C-13.45441532 47.9240591 -14.62357956 46.05111064 -15.83544922 44.20703125 C-16.40408691 43.33433594 -16.97272461 42.46164062 -17.55859375 41.5625 C-18.07607178 40.80066406 -18.5935498 40.03882813 -19.12670898 39.25390625 C-20 37 -20 37 -19.28393555 34.46069336 C-18.86023682 33.64866455 -18.43653809 32.83663574 -18 32 C-17.49605713 31.01108765 -17.49605713 31.01108765 -16.98193359 30.00219727 C-16.62437988 29.36338623 -16.26682617 28.7245752 -15.8984375 28.06640625 C-15.49415527 27.34114746 -15.08987305 26.61588867 -14.67333984 25.86865234 C-14.2448877 25.10762207 -13.81643555 24.3465918 -13.375 23.5625 C-12.93494629 22.77568848 -12.49489258 21.98887695 -12.04150391 21.17822266 C-8.07187911 14.09359478 -4.05102154 7.03836703 0 0 Z " fill="#5A78E8" transform="translate(48,214)"/>
<path d="M0 0 C73.92 0 147.84 0 224 0 C238 25 238 25 241 31 C239.80503906 32.485 239.80503906 32.485 238.5859375 34 C237.51555809 35.33327962 236.44524939 36.66661601 235.375 38 C234.85292969 38.64839844 234.33085937 39.29679687 233.79296875 39.96484375 C233.27089844 40.61582031 232.74882812 41.26679687 232.2109375 41.9375 C231.50396729 42.81728516 231.50396729 42.81728516 230.78271484 43.71484375 C229.02294399 45.8854546 229.02294399 45.8854546 227.81407166 47.9175415 C223.79844134 54.05629005 220.01975923 55.68563724 213.01953125 57.359375 C212.01352875 57.62599442 211.00752625 57.89261383 209.97103882 58.16731262 C206.59146272 59.05611329 203.20259666 59.90229258 199.8125 60.75 C197.36484964 61.38620364 194.91801045 62.0255349 192.47192383 62.66772461 C187.84272719 63.8797214 183.21149241 65.08260702 178.57636166 66.2716856 C169.22031072 68.67208107 159.88476594 71.14526907 150.5546875 73.64453125 C149.81326256 73.84304247 149.07183762 74.04155369 148.30794525 74.2460804 C145.26350212 75.06122568 142.21909656 75.87651074 139.1748085 76.69223499 C131.2732817 78.80894842 123.3681232 80.91196277 115.46294403 83.01498604 C96.39207113 88.08914942 77.32839565 93.19001494 58.26813984 98.30390453 C53.00223614 99.71663057 47.73580209 101.12735599 42.46890354 102.53636837 C26.75110818 106.74185924 11.04051285 110.9648912 -4.62890625 115.34765625 C-6.91115047 115.98208149 -9.19345561 116.61628763 -11.47583008 117.25024414 C-15.51638186 118.372793 -19.55011728 119.51620321 -23.58081055 120.67358398 C-25.31926576 121.15822568 -27.05793795 121.64209005 -28.796875 122.125 C-29.55517105 122.34974503 -30.3134671 122.57449005 -31.09474182 122.80604553 C-35.78563402 124.08277588 -38.57333357 123.98191646 -43 122 C-43.83063965 121.65243652 -44.6612793 121.30487305 -45.51708984 120.94677734 C-46.32355957 120.5802002 -47.1300293 120.21362305 -47.9609375 119.8359375 C-48.84394531 119.43632812 -49.72695312 119.03671875 -50.63671875 118.625 C-51.54035156 118.2125 -52.44398437 117.8 -53.375 117.375 C-54.30183594 116.95476562 -55.22867188 116.53453125 -56.18359375 116.1015625 C-58.45694599 115.07035118 -60.72902406 114.03643137 -63 113 C-62.40500425 108.86001766 -61.02258169 105.90665737 -58.9296875 102.30078125 C-58.28829834 101.18751465 -57.64690918 100.07424805 -56.98608398 98.92724609 C-56.28250636 97.72226239 -55.5788085 96.51734887 -54.875 95.3125 C-54.14786085 94.05588184 -53.42138967 92.79887694 -52.69555664 91.54150391 C-51.2003235 88.95372136 -49.7012215 86.36824311 -48.19873047 83.78466797 C-45.543811 79.21831094 -42.90913084 74.64035883 -40.27368164 70.06274414 C-38.42470291 66.85278333 -36.57225715 63.64484786 -34.71875 60.4375 C-32.2157051 56.10591493 -29.71578227 51.77255397 -27.21875 47.4375 C-20.3155691 35.4556265 -13.38816815 23.48895633 -6.39038086 11.56201172 C-5.84260986 10.62631348 -5.29483887 9.69061523 -4.73046875 8.7265625 C-4.24989014 7.90752441 -3.76931152 7.08848633 -3.27416992 6.24462891 C-2.11391255 4.20067293 -1.05109022 2.10218043 0 0 Z " fill="#539DF6" transform="translate(138,58)"/>
<path d="M0 0 C-1.19496094 1.485 -1.19496094 1.485 -2.4140625 3 C-3.48444191 4.33327962 -4.55475061 5.66661601 -5.625 7 C-6.14707031 7.64839844 -6.66914063 8.29679687 -7.20703125 8.96484375 C-7.72910156 9.61582031 -8.25117188 10.26679687 -8.7890625 10.9375 C-9.26037598 11.52402344 -9.73168945 12.11054687 -10.21728516 12.71484375 C-11.97705601 14.8854546 -11.97705601 14.8854546 -13.18592834 16.9175415 C-17.20155866 23.05629005 -20.98024077 24.68563724 -27.98046875 26.359375 C-28.98647125 26.62599442 -29.99247375 26.89261383 -31.02896118 27.16731262 C-34.40853728 28.05611329 -37.79740334 28.90229258 -41.1875 29.75 C-43.63515036 30.38620364 -46.08198955 31.0255349 -48.52807617 31.66772461 C-53.15727281 32.8797214 -57.78850759 34.08260702 -62.42363834 35.2716856 C-71.77968928 37.67208107 -81.11523406 40.14526907 -90.4453125 42.64453125 C-91.18673744 42.84304247 -91.92816238 43.04155369 -92.69205475 43.2460804 C-95.73649788 44.06122568 -98.78090344 44.87651074 -101.8251915 45.69223499 C-109.7267183 47.80894842 -117.6318768 49.91196277 -125.53705597 52.01498604 C-144.60792887 57.08914942 -163.67160435 62.19001494 -182.73186016 67.30390453 C-187.99776386 68.71663057 -193.26419791 70.12735599 -198.53109646 71.53636837 C-214.24889182 75.74185924 -229.95948715 79.9648912 -245.62890625 84.34765625 C-247.91115047 84.98208149 -250.19345561 85.61628763 -252.47583008 86.25024414 C-256.51638186 87.372793 -260.55011728 88.51620321 -264.58081055 89.67358398 C-266.31926576 90.15822568 -268.05793795 90.64209005 -269.796875 91.125 C-270.55517105 91.34974503 -271.3134671 91.57449005 -272.09474182 91.80604553 C-276.78563402 93.08277588 -279.57333357 92.98191646 -284 91 C-284.83063965 90.65243652 -285.6612793 90.30487305 -286.51708984 89.94677734 C-287.32355957 89.5802002 -288.1300293 89.21362305 -288.9609375 88.8359375 C-289.84394531 88.43632812 -290.72695313 88.03671875 -291.63671875 87.625 C-292.54035156 87.2125 -293.44398438 86.8 -294.375 86.375 C-295.30183594 85.95476562 -296.22867188 85.53453125 -297.18359375 85.1015625 C-299.45694599 84.07035118 -301.72902406 83.03643137 -304 82 C-304 81.34 -304 80.68 -304 80 C-303.18269409 79.78021233 -303.18269409 79.78021233 -302.34887695 79.5559845 C-296.4058351 77.95770484 -290.46297053 76.35876709 -284.52017212 74.75958252 C-282.17026776 74.12735396 -279.82031237 73.49531507 -277.4703064 72.86346436 C-264.64756783 69.41578074 -251.82735156 65.95977694 -239.01953125 62.45703125 C-219.99501633 57.25919074 -200.97661707 52.15356592 -181.78466797 47.60839844 C-173.60929933 45.66451689 -165.52875421 43.52521384 -157.4699707 41.14672852 C-151.02061438 39.25349918 -144.52786883 37.59987651 -138 36 C-129.65890453 33.95323167 -121.39703334 31.72970574 -113.15332031 29.32250977 C-105.88812406 27.21636847 -98.57782987 25.31279192 -91.25 23.4375 C-83.04406754 21.33705616 -74.8886843 19.14856915 -66.78051758 16.69848633 C-61.72444394 15.18097701 -56.6324353 13.89733107 -51.50244141 12.65722656 C-45.34354446 11.14022751 -39.27000482 9.35865663 -33.1875 7.5625 C-25.51859813 5.30440408 -17.84502248 3.07763491 -10.125 1 C-8.93040161 0.67044312 -8.93040161 0.67044312 -7.71166992 0.33422852 C-2.23513289 -1.11756645 -2.23513289 -1.11756645 0 0 Z " fill="#3C6EB9" transform="translate(379,89)"/>
<path d="M0 0 C2.14013345 0.24112743 4.28020693 0.48279904 6.4199754 0.72714412 C8.0420197 0.8986868 9.66664777 1.0485834 11.29342353 1.16713822 C28.53249571 2.48288594 37.3896704 11.0805953 49.12329102 23.02124023 C51.03935725 24.91230726 52.95827454 26.8000276 54.88101196 28.68426514 C59.52701113 33.25194075 64.12921677 37.86136624 68.71631248 42.48811787 C72.44916936 46.25180515 76.19719621 49.99974364 79.95622063 53.73729134 C80.4938401 54.27188164 81.03145958 54.80647194 81.58537055 55.35726194 C82.67802896 56.44365933 83.77071619 57.53002773 84.86343192 58.61636747 C95.07696156 68.77410038 105.24037693 78.98081212 115.38750642 89.20481605 C124.07113039 97.95174226 132.79865093 106.65278284 141.55932617 115.32250977 C151.76466186 125.4219167 161.93955871 135.55054311 172.06971496 145.72539669 C173.15264783 146.81292243 174.23562513 147.90040393 175.31864738 148.98784065 C175.851327 149.52270725 176.38400661 150.05757385 176.93282803 150.60864852 C180.66544083 154.35243764 184.41870564 158.07469699 188.18091011 161.7887249 C192.77378418 166.32377741 197.33278775 170.88998256 201.8528691 175.49763315 C204.15483521 177.84256323 206.4726456 180.16609865 208.82334328 182.4623127 C220.34080752 193.73528579 226.76898607 202.35296611 227.00755775 218.86195862 C227.00506369 219.56751228 227.00256963 220.27306593 227 221 C227.00783288 222.18823081 227.01566576 223.37646162 227.023736 224.60069942 C227.01198668 225.78835321 227.01198668 225.78835321 227 227 C226.34 227 225.68 227 225 227 C223.83432454 225.59433253 222.67304382 224.18481241 221.53294563 222.75832146 C219.92210325 220.91065076 218.21953546 219.3858548 216.34786987 217.80435658 C211.88969915 213.95263755 207.71935591 209.86173726 203.55908203 205.6927948 C202.74778682 204.88376514 201.9364916 204.07473549 201.10061169 203.24118978 C198.40064067 200.54751581 195.70422269 197.85031422 193.0078125 195.15307617 C191.06624004 193.21395614 189.12393643 191.27556902 187.1816864 189.33712769 C182.46681471 184.63053033 177.75469385 179.9211884 173.0436781 175.21073177 C169.21687256 171.38440235 165.38927634 167.55886568 161.56112671 163.733881 C150.70461329 152.88616075 139.85018511 142.03636018 128.99844301 131.18386682 C128.4145281 130.59991196 127.8306132 130.0159571 127.22900391 129.41430664 C126.35206326 128.53730467 126.35206326 128.53730467 125.45740664 127.64258549 C115.95943112 118.14420256 106.45646325 108.65083169 96.95125055 99.15969165 C87.1884404 89.41122175 77.42933949 79.65905226 67.67412949 69.90297681 C62.19813623 64.42665106 56.72060166 58.95188739 51.23907471 53.48110008 C46.57840541 48.82950424 41.9211717 44.17450299 37.26844555 39.5149615 C34.89324186 37.13647825 32.51590996 34.76022892 30.13529015 32.38715935 C27.56059062 29.82010134 24.99204639 27.24704328 22.42504883 24.67228699 C21.66398897 23.91637069 20.90292912 23.1604544 20.11880684 22.38163155 C19.4375115 21.69573742 18.75621616 21.00984329 18.05427551 20.30316448 C17.16312152 19.41233655 17.16312152 19.41233655 16.25396442 18.50351208 C15 17 15 17 15 15 C14.44699219 14.77183594 13.89398438 14.54367188 13.32421875 14.30859375 C10.33319346 12.62457111 8.23028231 10.49456758 5.8125 8.0625 C4.93207031 7.18722656 4.05164062 6.31195313 3.14453125 5.41015625 C1 3 1 3 0 0 Z " fill="#4253C6" transform="translate(49,214)"/>
<path d="M0 0 C0 2.97 0 5.94 0 9 C-0.66 9 -1.32 9 -2 9 C-2.10086914 9.61568848 -2.20173828 10.23137695 -2.30566406 10.86572266 C-3.72840296 19.13482614 -5.69533519 27.24552287 -7.75 35.375 C-7.92641022 36.07798218 -8.10282043 36.78096436 -8.28457642 37.50524902 C-10.66172974 46.97201435 -13.17451949 56.38415502 -15.92089844 65.75146484 C-17.59046561 71.46967546 -19.08682903 77.2133716 -20.5 83 C-22.11118926 89.5867515 -23.8533938 96.11475021 -25.75 102.625 C-28.726496 112.8497327 -31.44599033 123.13709109 -34.15350342 133.43545532 C-36.33789482 141.74398873 -38.53746309 150.04539885 -40.875 158.3125 C-42.50516012 164.09136383 -43.95061078 169.89029958 -45.26171875 175.75 C-47.40313095 185.17674578 -49.86232353 194.53166162 -52.32617188 203.87841797 C-52.54284264 204.70091978 -52.7595134 205.52342159 -52.98274994 206.3708477 C-55.26620768 215.02721867 -57.58226109 223.67474918 -59.90625 232.3203125 C-60.1271077 233.14220943 -60.34796539 233.96410637 -60.57551575 234.81090927 C-61.74131171 239.14900369 -62.90774443 243.4869263 -64.07470703 247.82470703 C-65.26294892 252.24213505 -66.44884173 256.6601902 -67.63422394 261.07838631 C-68.56295733 264.5381961 -69.49349357 267.99751927 -70.42448425 271.45672226 C-70.86201961 273.08364881 -71.29890607 274.71075004 -71.73506165 276.33804703 C-74.66693787 287.27377352 -77.75936689 298.15169404 -81 309 C-85.03914815 305.15399835 -86.38624927 300.59794949 -88.3125 295.4375 C-88.88967773 294.00954102 -88.88967773 294.00954102 -89.47851562 292.55273438 C-89.83236328 291.60591797 -90.18621094 290.65910156 -90.55078125 289.68359375 C-90.87731689 288.83337646 -91.20385254 287.98315918 -91.5402832 287.10717773 C-92.90760403 277.86559929 -88.36943254 267.53050953 -85.984375 258.625 C-85.57700877 257.09495119 -85.16990135 255.56483346 -84.76303101 254.03465271 C-83.66032255 249.89087898 -82.55366551 245.74816919 -81.44620514 241.6056633 C-80.50567324 238.08556654 -79.56746263 234.56485277 -78.62924385 231.04413891 C-70.92625355 202.13935001 -63.17752996 173.24675902 -55.41772461 144.35717773 C-54.50371689 140.95427147 -53.58972983 137.55135965 -52.67578125 134.1484375 C-52.3350335 132.87972526 -52.3350335 132.87972526 -51.98740196 131.58538246 C-48.18498612 117.42636414 -44.39275025 103.26463608 -40.60546875 89.1015625 C-40.34057648 88.1109614 -40.0756842 87.1203603 -39.80276489 86.09974098 C-37.21895574 76.43672216 -34.63603248 66.77346668 -32.05372524 57.11004639 C-31.10835928 53.5724924 -30.16280033 50.03499001 -29.2172184 46.49749374 C-28.37232584 43.33618509 -27.52790548 40.1747504 -26.68370438 37.01325703 C-26.30358581 35.59254877 -25.92232665 34.17214506 -25.53979111 32.75208569 C-24.72054452 29.71057711 -23.91600036 26.66723814 -23.14503479 23.61308289 C-22.89269577 22.62798233 -22.64035675 21.64288177 -22.38037109 20.62792969 C-22.17358734 19.7958197 -21.96680359 18.96370972 -21.75375366 18.10638428 C-20.44671335 14.45382601 -18.41634915 12.98856102 -15.3125 10.6875 C-14.78229248 10.28289551 -14.25208496 9.87829102 -13.70581055 9.46142578 C-12.15454531 8.28440945 -10.57765091 7.14140653 -9 6 C-7.43735997 4.79184776 -5.87483563 3.58354586 -4.3125 2.375 C-1.14364641 0 -1.14364641 0 0 0 Z " fill="#3F6CBC" transform="translate(401,132)"/>
</svg>
