<?xml version="1.0" encoding="UTF-8"?>
<svg version="1.1" xmlns="http://www.w3.org/2000/svg" width="2000" height="2000">
<path d="M0 0 C1.24644995 0.00309347 1.24644995 0.00309347 2.51808071 0.00624943 C14.93888337 0.11053164 27.34084903 0.86512233 39.74109197 1.53657794 C43.38633458 1.73299616 47.03186227 1.9239885 50.67735291 2.11573792 C56.78345858 2.43769608 62.88935156 2.76345621 68.99511719 3.09179688 C76.02795398 3.46996441 83.06104961 3.84296674 90.09431654 4.21304268 C97.63616026 4.60992223 105.1778096 5.01040297 112.71940303 5.41200757 C114.87282203 5.52645189 117.02627438 5.64024957 119.17973518 5.75390434 C123.20152222 5.96639058 127.22308147 6.1829288 131.24462891 6.39990234 C132.42247452 6.46176224 133.60032013 6.52362213 134.81385803 6.58735657 C136.47191467 6.67776718 136.47191467 6.67776718 138.16346741 6.77000427 C139.11035966 6.82070289 140.05725191 6.8714015 141.03283787 6.92363644 C142.10682803 7.00031835 143.1808182 7.07700026 144.28735352 7.15600586 C144.96912325 7.10827403 145.65089299 7.0605422 146.35332242 7.01136395 C153.9811794 6.92329137 158.07681563 10.70200413 163.3567915 15.76500985 C164.49978472 16.88891507 165.64235868 18.0132468 166.78455925 19.13795757 C168.02479071 20.32720963 169.26688843 21.51451793 170.51067269 22.70005378 C173.93268999 25.9730592 177.32682627 29.27374703 180.71691339 32.57977125 C184.40736635 36.16961085 188.12224469 39.73403078 191.83369076 43.30213815 C199.19769073 50.39024867 206.53675781 57.50369119 213.86788895 64.62577551 C219.9678009 70.55066192 226.07762277 76.46516867 232.19360924 82.37345886 C275.54972281 124.26088988 318.69389846 166.3642653 361.73196411 208.57820129 C362.24089723 209.0773889 362.74983036 209.57657651 363.2741857 210.09089101 C386.47473368 232.84799261 409.65317351 255.62745678 432.80156675 278.4376086 C442.55325888 288.04675761 452.30752456 297.65329333 462.06334797 307.25824788 C463.69700669 308.86667711 465.33058451 310.47518848 466.9641602 312.08370204 C501.17612465 345.76875093 535.61695102 379.20652031 570.20535024 412.50461831 C595.44542943 436.80332079 620.64287912 461.1403114 645.58943367 485.74079609 C646.36539867 486.50594302 646.36539867 486.50594302 647.15703974 487.28654747 C658.53581217 498.50811188 669.89436177 509.74992705 681.23422736 521.01080135 C685.8030787 525.54716063 690.37470377 530.0807214 694.94723892 534.61336708 C695.44747613 535.10938128 695.94771333 535.60539548 696.46310924 536.11644041 C711.38118481 550.90608491 726.47312836 565.49506746 741.71573097 579.94965141 C765.10828356 602.13875759 788.16629998 624.63148026 810.62280273 647.77392578 C811.48271364 648.65897727 812.34262455 649.54402875 813.22859336 650.45589998 C876.72115427 715.96334825 901.37836077 776.96065058 900.54421997 868.20649719 C900.39126072 877.57175107 899.96091234 886.91856506 899.42133404 896.26899336 C899.30243634 898.83100111 899.27325679 901.36556021 899.30571449 903.92932099 C899.28735352 907.15600586 899.28735352 907.15600586 898.28735352 908.15600586 C895.40520173 908.25963762 892.54681158 908.29698643 889.66401196 908.29302025 C888.74389284 908.29567208 887.82377372 908.2983239 886.87577221 908.30105609 C883.75174076 908.30879613 880.62774831 908.30931004 877.50370789 908.30990601 C875.25767862 908.31391753 873.01165009 908.31835523 870.76562244 908.32318556 C864.56174704 908.3351914 858.35787943 908.34080876 852.15399468 908.34536672 C846.16047607 908.35069838 840.1669656 908.36067681 834.17345286 908.37037618 C818.10831118 908.39603124 802.04316471 908.41104606 785.97800843 908.42388664 C780.65879433 908.42813894 775.33958057 908.4327046 770.02036691 908.43746996 C741.75856187 908.46272694 713.49675628 908.48478264 685.23494244 908.4971981 C678.68413478 908.5001196 672.13332714 908.50308708 665.58251953 908.50610352 C664.76863619 908.50647442 663.95475284 908.50684533 663.11620636 908.50722748 C636.71732976 908.51938794 610.31851975 908.55033903 583.91967444 908.59202504 C556.79669836 908.63477662 529.67375745 908.66143451 502.55074675 908.66667282 C498.72287036 908.66741331 494.89499402 908.66832401 491.06711769 908.6693306 C489.93701646 908.66961652 489.93701646 908.66961652 488.7840849 908.66990822 C476.64034139 908.67342709 464.49668106 908.69374933 452.35296813 908.72012723 C440.15505778 908.74622411 427.9572439 908.7540196 415.75930961 908.74302594 C409.14622989 908.73756202 402.53336338 908.74086018 395.9203167 908.76549149 C389.87343165 908.78782702 383.82700507 908.787367 377.78011284 908.76828761 C375.58559802 908.76546545 373.39105314 908.7712075 371.19658705 908.78610055 C368.2265625 908.80503413 365.25820199 908.793535 362.2882185 908.77403831 C360.99285695 908.79331215 360.99285695 908.79331215 359.67132649 908.81297535 C353.87765876 908.72868491 353.87765876 908.72868491 350.81806117 905.76044524 C350.31292765 904.90098024 349.80779412 904.04151525 349.28735352 903.15600586 C348.5487207 902.02291992 348.5487207 902.02291992 347.79516602 900.86694336 C344.64185927 895.54017095 341.61187376 890.16156188 338.67797852 884.71069336 C337.46267443 882.47808418 336.20257575 880.28324923 334.91235352 878.09350586 C333.28735352 875.15600586 333.28735352 875.15600586 333.28735352 873.15600586 C332.62735352 873.15600586 331.96735352 873.15600586 331.28735352 873.15600586 C330.87485352 872.29620117 330.46235352 871.43639648 330.03735352 870.55053711 C326.39829034 863.10182967 322.50134368 856.04749562 317.98657227 849.09350586 C316.29217781 846.16434579 315.23690755 843.39509372 314.28735352 840.15600586 C313.62735352 840.15600586 312.96735352 840.15600586 312.28735352 840.15600586 C311.13652667 837.90843802 309.99158493 835.65818838 308.84985352 833.40600586 C308.52436523 832.77178711 308.19887695 832.13756836 307.86352539 831.48413086 C306.31671687 828.42240678 304.89584571 825.54984965 304.28735352 822.15600586 C303.62735352 822.15600586 302.96735352 822.15600586 302.28735352 822.15600586 C301.90063477 821.4431543 301.51391602 820.73030273 301.11547852 819.99584961 C297.58745946 813.50324422 297.58745946 813.50324422 293.91235352 807.09350586 C292.28735352 804.15600586 292.28735352 804.15600586 292.28735352 802.15600586 C291.62735352 802.15600586 290.96735352 802.15600586 290.28735352 802.15600586 C289.9096582 801.36581055 289.53196289 800.57561523 289.14282227 799.76147461 C285.11332706 791.5043123 280.7102481 783.54484974 276.02050781 775.64306641 C273.80692468 771.89178243 271.7262485 768.28970994 270.28735352 764.15600586 C269.62735352 764.15600586 268.96735352 764.15600586 268.28735352 764.15600586 C267.57120768 762.43074544 266.85506185 760.70548503 266.13891602 758.98022461 C265.2192866 756.89066653 265.2192866 756.89066653 263.28735352 754.15600586 C263.28735352 753.16600586 263.28735352 752.17600586 263.28735352 751.15600586 C262.62735352 751.15600586 261.96735352 751.15600586 261.28735352 751.15600586 C260.72790039 750.00874023 260.16844727 748.86147461 259.59204102 747.67944336 C257.3833118 743.26392753 254.93843058 739.02089471 252.41235352 734.78100586 C251.97616699 734.04221191 251.53998047 733.30341797 251.09057617 732.54223633 C248.20753961 727.66743885 245.26957291 722.82946976 242.24829102 718.03881836 C241.28735352 716.15600586 241.28735352 716.15600586 241.28735352 713.15600586 C240.62735352 713.15600586 239.96735352 713.15600586 239.28735352 713.15600586 C238.92383789 712.47795898 238.56032227 711.79991211 238.18579102 711.10131836 C235.64315746 706.39418649 233.06608832 701.72842133 230.28735352 697.15600586 C228.23971021 693.78216871 226.29010448 690.37730763 224.41235352 686.90600586 C218.24687099 675.5101654 211.66938467 664.36002327 205.03125 653.23486328 C201.7788959 647.76284595 198.67677297 642.23057749 195.64916992 636.63134766 C193.9624631 633.56546017 192.15589518 630.61453016 190.28735352 627.65600586 C187.2958787 622.84585033 184.50265123 617.98058 181.82250977 612.99194336 C177.70058883 605.3774024 173.34203086 597.89855277 168.88500977 590.47631836 C168.29212158 589.48543213 167.6992334 588.4945459 167.08837891 587.47363281 C165.89928622 585.48955502 164.70456451 583.50883864 163.50390625 581.53173828 C162.95806885 580.62012939 162.41223145 579.70852051 161.84985352 578.76928711 C161.10928711 577.54399292 161.10928711 577.54399292 160.35375977 576.29394531 C159.28735352 574.15600586 159.28735352 574.15600586 159.28735352 571.15600586 C158.62735352 571.15600586 157.96735352 571.15600586 157.28735352 571.15600586 C156.92383789 570.47795898 156.56032227 569.79991211 156.18579102 569.10131836 C153.64315746 564.39418649 151.06608832 559.72842133 148.28735352 555.15600586 C146.32750336 551.92476574 144.45431657 548.67068873 142.66235352 545.34350586 C139.67716198 539.81972624 136.58600006 534.35948584 133.47485352 528.90600586 C132.69972412 527.5463269 132.69972412 527.5463269 131.90893555 526.15917969 C128.34368299 519.93251789 124.69629995 513.76158056 120.87792969 507.6862793 C119.1784327 504.92732981 118.28735352 503.46554545 118.28735352 500.15600586 C117.62735352 500.15600586 116.96735352 500.15600586 116.28735352 500.15600586 C115.92383789 499.47795898 115.56032227 498.79991211 115.18579102 498.10131836 C112.64315746 493.39418649 110.06608832 488.72842133 107.28735352 484.15600586 C105.23971021 480.78216871 103.29010448 477.37730763 101.41235352 473.90600586 C96.78445476 465.35212616 91.95377464 456.92378934 86.95532227 448.58178711 C86.37145752 447.60443604 85.78759277 446.62708496 85.18603516 445.62011719 C84.02238493 443.67546785 82.85376238 441.73378346 81.6796875 439.79541016 C79.01639563 435.34200427 76.62108809 431.22082069 75.28735352 426.15600586 C74.62735352 426.15600586 73.96735352 426.15600586 73.28735352 426.15600586 C72.85165039 425.26139648 72.41594727 424.36678711 71.96704102 423.44506836 C68.37723167 416.13347139 64.56230976 409.09475394 60.28735352 402.15600586 C58.98800731 399.99393586 57.6964758 397.82715237 56.41235352 395.65600586 C55.5190332 394.15553711 55.5190332 394.15553711 54.60766602 392.62475586 C53.28735352 390.15600586 53.28735352 390.15600586 53.28735352 388.15600586 C52.62735352 388.15600586 51.96735352 388.15600586 51.28735352 388.15600586 C50.95864258 387.4637793 50.62993164 386.77155273 50.29125977 386.05834961 C46.98772085 379.26326549 43.38245354 372.80260895 39.35986328 366.40966797 C37.09763527 362.75507191 35.47505924 359.28770557 34.28735352 355.15600586 C33.62735352 355.15600586 32.96735352 355.15600586 32.28735352 355.15600586 C31.13652667 352.90843802 29.99158493 350.65818838 28.84985352 348.40600586 C28.52436523 347.77178711 28.19887695 347.13756836 27.86352539 346.48413086 C26.31671687 343.42240678 24.89584571 340.54984965 24.28735352 337.15600586 C23.62735352 337.15600586 22.96735352 337.15600586 22.28735352 337.15600586 C21.90063477 336.4431543 21.51391602 335.73030273 21.11547852 334.99584961 C17.58745946 328.50324422 17.58745946 328.50324422 13.91235352 322.09350586 C12.28735352 319.15600586 12.28735352 319.15600586 12.28735352 317.15600586 C11.62735352 317.15600586 10.96735352 317.15600586 10.28735352 317.15600586 C9.13652667 314.90843802 7.99158493 312.65818838 6.84985352 310.40600586 C6.52436523 309.77178711 6.19887695 309.13756836 5.86352539 308.48413086 C4.31671687 305.42240678 2.89584571 302.54984965 2.28735352 299.15600586 C1.62735352 299.15600586 0.96735352 299.15600586 0.28735352 299.15600586 C-0.09936523 298.4431543 -0.48608398 297.73030273 -0.88452148 296.99584961 C-4.41254054 290.50324422 -4.41254054 290.50324422 -8.08764648 284.09350586 C-9.71264648 281.15600586 -9.71264648 281.15600586 -9.71264648 279.15600586 C-10.37264648 279.15600586 -11.03264648 279.15600586 -11.71264648 279.15600586 C-12.05295898 278.45217773 -12.39327148 277.74834961 -12.74389648 277.02319336 C-17.72071385 266.8842516 -23.30508895 257.15699661 -29.11499023 247.48022461 C-29.70787842 246.48877441 -30.3007666 245.49732422 -30.91162109 244.47583008 C-32.10043243 242.49077138 -33.29514672 240.50923443 -34.49609375 238.53149414 C-35.04193115 237.61996582 -35.58776855 236.7084375 -36.15014648 235.76928711 C-36.64385742 234.95242432 -37.13756836 234.13556152 -37.64624023 233.29394531 C-38.71264648 231.15600586 -38.71264648 231.15600586 -38.71264648 228.15600586 C-39.37264648 228.15600586 -40.03264648 228.15600586 -40.71264648 228.15600586 C-41.00655273 227.60557617 -41.30045898 227.05514648 -41.60327148 226.48803711 C-46.66949044 217.09806233 -52.0019304 207.86088698 -57.30981445 198.60620117 C-58.48121169 196.56023134 -59.64804963 194.51186451 -60.81030273 192.46069336 C-63.84746624 187.10857933 -66.92352274 181.79107796 -70.09155273 176.51538086 C-70.98596069 175.02059204 -70.98596069 175.02059204 -71.8984375 173.49560547 C-73.09241616 171.50339158 -74.29198295 169.51451439 -75.49755859 167.52929688 C-76.0429126 166.61849365 -76.5882666 165.70769043 -77.15014648 164.76928711 C-77.89071289 163.54399292 -77.89071289 163.54399292 -78.64624023 162.29394531 C-79.71264648 160.15600586 -79.71264648 160.15600586 -79.71264648 157.15600586 C-80.37264648 157.15600586 -81.03264648 157.15600586 -81.71264648 157.15600586 C-82.67454645 155.4288207 -83.63201156 153.69916528 -84.58764648 151.96850586 C-85.12131836 151.00557617 -85.65499023 150.04264648 -86.20483398 149.05053711 C-86.70241211 148.0953418 -87.19999023 147.14014648 -87.71264648 146.15600586 C-88.15737305 145.31553711 -88.60209961 144.47506836 -89.06030273 143.60913086 C-89.71264648 141.15600586 -89.71264648 141.15600586 -88.84155273 138.68334961 C-88.32463867 137.82870117 -87.80772461 136.97405273 -87.27514648 136.09350586 C-86.4359668 134.66844727 -86.4359668 134.66844727 -85.57983398 133.21459961 C-84.65557617 131.7005957 -84.65557617 131.7005957 -83.71264648 130.15600586 C-82.43817892 127.99147491 -81.16727288 125.82484253 -79.90014648 123.65600586 C-79.02422852 122.18647461 -79.02422852 122.18647461 -78.13061523 120.68725586 C-76.60797992 118.15493565 -76.60797992 118.15493565 -75.71264648 115.15600586 C-75.05264648 115.15600586 -74.39264648 115.15600586 -73.71264648 115.15600586 C-73.71264648 114.16600586 -73.71264648 113.17600586 -73.71264648 112.15600586 C-73.05264648 112.15600586 -72.39264648 112.15600586 -71.71264648 112.15600586 C-71.56827148 111.55788086 -71.42389648 110.95975586 -71.27514648 110.34350586 C-70.82540259 108.59450181 -70.28372307 106.86923563 -69.71264648 105.15600586 C-69.05264648 105.15600586 -68.39264648 105.15600586 -67.71264648 105.15600586 C-67.56827148 104.55788086 -67.42389648 103.95975586 -67.27514648 103.34350586 C-66.82540259 101.59450181 -66.28372307 99.86923563 -65.71264648 98.15600586 C-65.05264648 98.15600586 -64.39264648 98.15600586 -63.71264648 98.15600586 C-63.60049805 97.59655273 -63.48834961 97.03709961 -63.37280273 96.46069336 C-62.61349011 93.80983865 -61.49378726 91.69004027 -60.15014648 89.28100586 C-59.61776367 88.32323242 -59.08538086 87.36545898 -58.53686523 86.37866211 C-56.18270594 82.21981539 -53.81812192 78.06697192 -51.42919922 73.92797852 C-49.76788164 71.04307556 -48.15735479 68.15598688 -46.71264648 65.15600586 C-46.05264648 65.15600586 -45.39264648 65.15600586 -44.71264648 65.15600586 C-44.55795898 64.35163086 -44.55795898 64.35163086 -44.40014648 63.53100586 C-43.53171952 60.53098542 -42.15644352 57.91805236 -40.71264648 55.15600586 C-40.05264648 55.15600586 -39.39264648 55.15600586 -38.71264648 55.15600586 C-38.57536133 54.39030273 -38.57536133 54.39030273 -38.43530273 53.60913086 C-37.42243851 50.17086743 -35.78044217 47.08266121 -34.15014648 43.90600586 C-33.82079102 43.25631836 -33.49143555 42.60663086 -33.15209961 41.93725586 C-32.34257084 40.34166291 -31.52809607 38.74858102 -30.71264648 37.15600586 C-30.05264648 37.15600586 -29.39264648 37.15600586 -28.71264648 37.15600586 C-28.46385742 36.2987793 -28.21506836 35.44155273 -27.95874023 34.55834961 C-26.61903431 30.90040647 -24.88364728 27.98923429 -22.77514648 24.71850586 C-19.92204203 20.28686137 -17.67596148 16.02428849 -15.71264648 11.15600586 C-15.05264648 11.15600586 -14.39264648 11.15600586 -13.71264648 11.15600586 C-13.71264648 10.16600586 -13.71264648 9.17600586 -13.71264648 8.15600586 C-13.05264648 8.15600586 -12.39264648 8.15600586 -11.71264648 8.15600586 C-11.56827148 7.55788086 -11.42389648 6.95975586 -11.27514648 6.34350586 C-10.82540259 4.59450181 -10.28372307 2.86923563 -9.71264648 1.15600586 C-6.62458012 -0.38802732 -3.38848451 -0.01206048 0 0 Z " fill="#566074" transform="translate(204.712646484375,858.843994140625)"/>
<path d="M0 0 C1.32421875 2.046875 1.32421875 2.046875 2.6875 4.75 C4.96723611 9.11713716 7.38700496 13.32320487 10 17.5 C13.03709774 22.37898781 15.85815938 27.32158955 18.5703125 32.38671875 C19.98283258 34.9686202 21.4714079 37.48534719 23 40 C24.95985015 43.23124012 26.83303694 46.48531713 28.625 49.8125 C37.72236099 66.64976236 47.53027769 83.10610929 57.30078125 99.55859375 C57.87256104 100.52289307 58.44434082 101.48719238 59.03344727 102.48071289 C60.14021961 104.3468466 61.24865613 106.21199481 62.35913086 108.07592773 C65.52120181 113.40763087 68.55016278 118.79430036 71.5 124.24609375 C73.9817181 128.80237307 76.5516665 133.30752102 79.125 137.8125 C79.63675781 138.71419922 80.14851563 139.61589844 80.67578125 140.54492188 C82.79976105 144.26598159 84.90725603 147.93889438 87.3671875 151.44921875 C89 154 89 154 89 157 C89.66 157 90.32 157 91 157 C91.52851562 158.09699219 92.05703125 159.19398438 92.6015625 160.32421875 C95.2621924 165.64430852 98.3166239 170.71403201 101.375 175.8125 C105.26912585 182.31332457 109.052756 188.84821974 112.65576172 195.51538086 C114.35645669 198.65885575 116.10585385 201.76950312 117.875 204.875 C118.20306641 205.45161377 118.53113281 206.02822754 118.86914062 206.62231445 C120.62016238 209.67704998 122.41651338 212.69383811 124.2890625 215.67578125 C124.65918457 216.26568848 125.02930664 216.8555957 125.41064453 217.46337891 C126.44379846 219.09854992 127.48723677 220.72720966 128.53125 222.35546875 C130 225 130 225 130 228 C130.66 228 131.32 228 132 228 C132.54398438 229.11503906 133.08796875 230.23007812 133.6484375 231.37890625 C136.1287073 236.33617948 138.86020256 241.13463914 141.625 245.9375 C142.15134033 246.8555542 142.67768066 247.7736084 143.2199707 248.71948242 C146.90797086 255.13888163 150.65049315 261.52470723 154.42041016 267.89624023 C157.17539794 272.5640146 159.85714936 277.26793937 162.5 282 C168.55321754 292.82939626 174.8192236 303.52947149 181.375 314.0625 C183.83907911 318.03570387 186.12104868 321.9961383 188.125 326.21875 C189.07986061 328.16257338 190.14947038 330.01021369 191.25 331.875 C193 335 193 335 193 337 C193.66 337 194.32 337 195 337 C195.30550781 337.65742187 195.61101563 338.31484375 195.92578125 338.9921875 C199.50946464 346.442211 203.62309881 353.41699637 207.97216797 360.43969727 C210.89095099 365.16079164 213.66208549 369.91501995 216.26953125 374.81640625 C218.8163505 379.50186378 221.47456743 384.12255665 224.125 388.75 C224.64054443 389.65016846 225.15608887 390.55033691 225.68725586 391.4777832 C226.18491455 392.3462085 226.68257324 393.21463379 227.1953125 394.109375 C227.91122559 395.36137695 227.91122559 395.36137695 228.64160156 396.63867188 C229.50502813 398.13958161 230.37595009 399.63622323 231.25683594 401.12695312 C234 405.79298593 234 405.79298593 234 408 C234.66 408 235.32 408 236 408 C236.30550781 408.65742187 236.61101563 409.31484375 236.92578125 409.9921875 C240.50685179 417.43677922 244.61585746 424.40764599 248.96337891 431.42431641 C251.98184191 436.30473134 254.84303716 441.22767923 257.54296875 446.29296875 C259.31144638 449.57863899 261.14932327 452.8227332 263 456.0625 C263.33660645 456.65498535 263.67321289 457.2474707 264.02001953 457.85791016 C266.56016228 462.30408342 269.25500631 466.63489273 272.06640625 470.9140625 C273 473 273 473 272.83984375 474.8984375 C270.66246021 480.34696002 267.68437562 485.26912856 264.625 490.25 C261.11010997 496.03002551 257.87123037 501.86797535 255 508 C254.34 508 253.68 508 253 508 C252.89042969 508.56589844 252.78085938 509.13179687 252.66796875 509.71484375 C251.90279504 512.33254327 250.76189214 514.25336344 249.3125 516.5625 C247.15086323 520.07965247 245.0841994 523.61608769 243.125 527.25 C240.81212 531.53669906 238.42749027 535.77742945 236 540 C232.57917293 545.95331885 229.25669739 551.95537226 226 558 C225.34 558 224.68 558 224 558 C223.84144531 558.84111328 223.84144531 558.84111328 223.6796875 559.69921875 C222.87824984 562.41213127 221.63715077 564.42390364 220.125 566.8125 C217.67504629 570.78778547 215.69964438 574.65646435 214 579 C213.34 579 212.68 579 212 579 C211.75121094 579.85722656 211.50242187 580.71445313 211.24609375 581.59765625 C209.90638782 585.25559939 208.1710008 588.16677157 206.0625 591.4375 C203.20939554 595.86914449 200.96331499 600.13171737 199 605 C198.34 605 197.68 605 197 605 C196.89042969 605.56589844 196.78085938 606.13179687 196.66796875 606.71484375 C195.90279504 609.33254327 194.76189214 611.25336344 193.3125 613.5625 C191.16317992 617.05641842 189.12066986 620.5695564 187.1875 624.1875 C184.39124903 629.37634366 181.37397685 634.40886821 178.31933594 639.44750977 C175.57959211 643.98470558 173.0228599 648.5951971 170.5234375 653.26953125 C168.80327038 656.3526 166.94361662 659.32505618 165.0625 662.3125 C161.49835133 668.01650083 158.50925532 673.83478001 155.640625 679.90625 C154.02485072 682.95313864 152.17857186 685.34016571 150 688 C148.97684769 689.70350934 147.9974973 691.43405631 147.0625 693.1875 C146.55589844 694.13625 146.04929687 695.085 145.52734375 696.0625 C143.29853482 700.34910951 141.12670947 704.66188909 139 709 C138.34 709 137.68 709 137 709 C136.74476563 709.85464844 136.48953125 710.70929687 136.2265625 711.58984375 C134.93019323 715.19408061 133.30008105 718.25304791 131.375 721.5625 C131.02453613 722.16747314 130.67407227 722.77244629 130.31298828 723.39575195 C127.26774968 728.6213053 124.07629374 733.75221343 120.88671875 738.890625 C116.92940815 745.41240396 113.33678474 752.1410536 110 759 C109.34 759 108.68 759 108 759 C107.83564453 759.84884766 107.83564453 759.84884766 107.66796875 760.71484375 C106.90279504 763.33254327 105.76189214 765.25336344 104.3125 767.5625 C102.15086323 771.07965247 100.0841994 774.61608769 98.125 778.25 C95.82372547 782.51006173 93.46648476 786.73469328 91.0625 790.9375 C90.72742432 791.52345947 90.39234863 792.10941895 90.04711914 792.71313477 C88.37062075 795.63622916 86.68046664 798.55050473 84.96875 801.453125 C84.02515625 803.05414062 84.02515625 803.05414062 83.0625 804.6875 C82.49660156 805.64011719 81.93070313 806.59273437 81.34765625 807.57421875 C79.89029873 810.02195625 79.89029873 810.02195625 79 813 C78.34 813 77.68 813 77 813 C76.73574219 813.87269531 76.47148438 814.74539063 76.19921875 815.64453125 C75.01933779 818.94589198 73.60482342 821.68115431 71.8125 824.6875 C70.88630859 826.24597656 70.88630859 826.24597656 69.94140625 827.8359375 C68.08709179 830.85805967 66.17967395 833.83809812 64.25 836.8125 C61.69378513 840.77606913 59.66523676 844.59202033 58 849 C57.34 849 56.68 849 56 849 C55.855625 849.598125 55.71125 850.19625 55.5625 850.8125 C55.1127561 852.56150404 54.57107659 854.28677023 54 856 C53.34 856 52.68 856 52 856 C51.855625 856.598125 51.71125 857.19625 51.5625 857.8125 C51.1127561 859.56150404 50.57107659 861.28677023 50 863 C49.34 863 48.68 863 48 863 C47.80772827 863.88377319 47.80772827 863.88377319 47.61157227 864.78540039 C46.64382524 868.28976496 44.73609065 871.30400332 42.9375 874.4375 C42.5355542 875.14543701 42.1336084 875.85337402 41.71948242 876.58276367 C38.54833342 882.1321187 35.21405714 887.56503264 31.83203125 892.98828125 C29.60322295 896.65227101 27.58465397 900.40695128 25.5625 904.1875 C23.80254067 907.3554268 21.91543074 910.42370214 20 913.5 C17.01992579 918.29182388 14.23197917 923.1351127 11.5703125 928.109375 C9.7273543 931.50188512 7.80431105 934.84362733 5.875 938.1875 C3.07581185 943.04851954 0.4277366 947.94221542 -2 953 C-2.66 953 -3.32 953 -4 953 C-4.144375 953.598125 -4.28875 954.19625 -4.4375 954.8125 C-4.8872439 956.56150404 -5.42892341 958.28677023 -6 960 C-6.66 960 -7.32 960 -8 960 C-8.16435547 960.84884766 -8.16435547 960.84884766 -8.33203125 961.71484375 C-9.09720496 964.33254327 -10.23810786 966.25336344 -11.6875 968.5625 C-13.84913677 972.07965247 -15.9158006 975.61608769 -17.875 979.25 C-21.1353157 985.2866783 -24.54153996 991.23573364 -27.95898438 997.18408203 C-29.00264576 999.00461519 -30.04120227 1000.8279651 -31.078125 1002.65234375 C-34.9654766 1009.48843428 -38.92112056 1016.27596168 -43 1023 C-46.31522464 1028.46884882 -49.56230297 1033.95444516 -52.63671875 1039.5625 C-54.86709385 1043.550334 -57.21259196 1047.47075256 -59.546875 1051.3984375 C-61.09995792 1053.98897273 -61.09995792 1053.98897273 -62 1057 C-62.66 1057 -63.32 1057 -64 1057 C-64.144375 1057.598125 -64.28875 1058.19625 -64.4375 1058.8125 C-64.8872439 1060.56150404 -65.42892341 1062.28677023 -66 1064 C-66.66 1064 -67.32 1064 -68 1064 C-68.226875 1064.804375 -68.45375 1065.60875 -68.6875 1066.4375 C-71.07148971 1072.90832922 -74.71182167 1078.59690153 -78.4375 1084.375 C-81.36388174 1088.91659244 -83.988365 1093.55383905 -86.53515625 1098.31640625 C-87.95806989 1100.92318403 -89.45687797 1103.46286689 -91 1106 C-93.58646101 1110.26163007 -95.98583871 1114.60105275 -98.3515625 1118.98828125 C-100.60360057 1123.10278683 -102.93938056 1127.16757393 -105.28466797 1131.22949219 C-106.94518615 1134.11411561 -108.55556649 1137.0005896 -110 1140 C-110.66 1140 -111.32 1140 -112 1140 C-112.10570312 1140.56074219 -112.21140625 1141.12148437 -112.3203125 1141.69921875 C-113.12175016 1144.41213127 -114.36284923 1146.42390364 -115.875 1148.8125 C-118.32495371 1152.78778547 -120.30035562 1156.65646435 -122 1161 C-122.66 1161 -123.32 1161 -124 1161 C-124.226875 1161.804375 -124.45375 1162.60875 -124.6875 1163.4375 C-127.50843446 1171.09432211 -132.09333454 1177.8206975 -136.546875 1184.6171875 C-138.12731478 1187.00868713 -138.12731478 1187.00868713 -139 1190 C-139.66 1190 -140.32 1190 -141 1190 C-141.2165625 1190.8971875 -141.2165625 1190.8971875 -141.4375 1191.8125 C-141.8872439 1193.56150404 -142.42892341 1195.28677023 -143 1197 C-143.66 1197 -144.32 1197 -145 1197 C-145.17015625 1197.84111328 -145.17015625 1197.84111328 -145.34375 1198.69921875 C-147.65005031 1206.78499782 -153.31789229 1214.26009384 -157.66845703 1221.42407227 C-160.52090768 1226.13926145 -163.17489471 1230.93400733 -165.7109375 1235.828125 C-167.04498539 1238.07579357 -167.91872626 1239.42025316 -170 1241 C-172.92201233 1241.38311005 -172.92201233 1241.38311005 -176.56665039 1241.39440918 C-177.23679955 1241.40050028 -177.90694872 1241.40659139 -178.59740543 1241.41286707 C-180.84766027 1241.42954414 -183.09735215 1241.42471484 -185.34765625 1241.41992188 C-186.95898021 1241.42725943 -188.5702989 1241.43584474 -190.18161011 1241.44558716 C-194.56170586 1241.46784305 -198.94161373 1241.47073188 -203.32175827 1241.46883965 C-206.97507564 1241.46872015 -210.62835289 1241.47727549 -214.28165913 1241.48561716 C-222.89776078 1241.50486526 -231.51376554 1241.50772966 -240.12988281 1241.50097656 C-249.02721893 1241.49433161 -257.92414091 1241.51721502 -266.82139301 1241.55429029 C-274.45373336 1241.58494403 -282.08594017 1241.59635213 -289.71834087 1241.59245348 C-294.27981215 1241.59038178 -298.84096111 1241.59592983 -303.40237427 1241.62034607 C-307.69038065 1241.64254002 -311.97771144 1241.64079744 -316.26572037 1241.62041855 C-317.84154912 1241.61699557 -319.41742272 1241.62215281 -320.99319077 1241.63640213 C-323.14070752 1241.65448542 -325.28590528 1241.64193248 -327.43334961 1241.62145996 C-328.63608017 1241.62217247 -329.83881073 1241.62288498 -331.07798767 1241.62361908 C-334 1241 -334 1241 -335.85017395 1238.61923981 C-336.98845931 1236.02628905 -337.95900182 1233.48641148 -338.796875 1230.78125 C-339.11213135 1229.77747314 -339.4273877 1228.77369629 -339.75219727 1227.73950195 C-340.08147217 1226.67046631 -340.41074707 1225.60143066 -340.75 1224.5 C-341.46113732 1222.23272689 -342.1733942 1219.96580467 -342.88671875 1217.69921875 C-343.24169434 1216.56790527 -343.59666992 1215.4365918 -343.96240234 1214.27099609 C-345.44394285 1209.60048322 -346.99772616 1204.95565603 -348.5625 1200.3125 C-351.84313162 1190.5400904 -354.97288789 1180.72310317 -358.08203125 1170.89501953 C-359.69041706 1165.82261556 -361.31445559 1160.75522862 -362.9375 1155.6875 C-363.27128662 1154.64424561 -363.60507324 1153.60099121 -363.94897461 1152.52612305 C-365.62971594 1147.27385689 -367.31386547 1142.02271902 -369.00390625 1136.7734375 C-372.74731749 1125.13306727 -376.42244305 1113.47544381 -379.98022461 1101.77685547 C-381.69585451 1096.15564706 -383.46293147 1090.55789035 -385.31640625 1084.98046875 C-385.88004883 1083.27213867 -385.88004883 1083.27213867 -386.45507812 1081.52929688 C-387.17678229 1079.3514559 -387.90809683 1077.17676889 -388.65039062 1075.00585938 C-389.13475586 1073.53922852 -389.13475586 1073.53922852 -389.62890625 1072.04296875 C-389.91838135 1071.18727295 -390.20785645 1070.33157715 -390.50610352 1069.44995117 C-391.08444583 1066.5811103 -390.74834001 1064.81697723 -390 1062 C-389.67286011 1060.65711914 -389.67286011 1060.65711914 -389.33911133 1059.28710938 C-388.49978105 1056.02397947 -387.65893297 1052.76129632 -386.8125 1049.5 C-386.34602051 1047.69970337 -386.34602051 1047.69970337 -385.87011719 1045.86303711 C-383.69466035 1037.52470802 -381.39340602 1029.23084455 -378.99389648 1020.95458984 C-377.44973383 1015.61830699 -376.01667139 1010.2704873 -374.70703125 1004.87109375 C-373.23400129 998.88945275 -371.59735388 992.94938972 -370 987 C-369.33284863 984.5001293 -368.66617885 982.00013003 -368 979.5 C-365.33333333 969.5 -362.66666667 959.5 -360 949.5 C-359.66613281 948.24703125 -359.33226562 946.9940625 -358.98828125 945.703125 C-358.3626463 943.35884857 -357.73526245 941.01503759 -357.10546875 938.671875 C-355.45816309 932.5312803 -353.83905123 926.38550937 -352.26171875 920.2265625 C-351.95145752 919.01838867 -351.64119629 917.81021484 -351.3215332 916.56542969 C-350.69871415 914.13712616 -350.07868236 911.70810575 -349.46166992 909.27832031 C-349.17267822 908.15264648 -348.88368652 907.02697266 -348.5859375 905.8671875 C-348.19994385 904.35294189 -348.19994385 904.35294189 -347.80615234 902.80810547 C-347.03231496 900.11256411 -346.04680215 897.59861953 -345 895 C-344.61825838 893.59606617 -344.27013697 892.182536 -343.95703125 890.76171875 C-343.77382324 889.953396 -343.59061523 889.14507324 -343.40185547 888.31225586 C-343.20736816 887.44608643 -343.01288086 886.57991699 -342.8125 885.6875 C-340.7009746 876.52918398 -338.20454444 867.52391031 -335.49926758 858.52416992 C-333.76640094 852.73883181 -332.1945182 846.93920851 -330.75488281 841.07397461 C-327.12432005 826.28988157 -323.23236573 811.57379632 -318.9934082 796.95288086 C-317.44939833 791.61717226 -316.0165312 786.26990933 -314.70703125 780.87109375 C-313.23400129 774.88945275 -311.59735388 768.94938972 -310 763 C-309.33284863 760.5001293 -308.66617885 758.00013003 -308 755.5 C-306.9912038 751.71404718 -305.98082018 747.92856421 -304.96484375 744.14453125 C-303.4691198 738.56542405 -301.98656325 732.98846251 -300.625 727.375 C-299.28835836 721.95618255 -297.74461926 716.60835129 -296.1875 711.25 C-293.55553453 702.19133471 -291.21471867 693.07764693 -289.00463867 683.90722656 C-288.77107666 682.9478418 -288.53751465 681.98845703 -288.296875 681 C-288.09416992 680.154375 -287.89146484 679.30875 -287.68261719 678.4375 C-286.96289304 675.8674979 -285.99331512 673.47527918 -285 671 C-284.61825838 669.59606617 -284.27013697 668.182536 -283.95703125 666.76171875 C-283.77382324 665.953396 -283.59061523 665.14507324 -283.40185547 664.31225586 C-283.20736816 663.44608643 -283.01288086 662.57991699 -282.8125 661.6875 C-280.7009746 652.52918398 -278.20454444 643.52391031 -275.49926758 634.52416992 C-273.76640094 628.73883181 -272.1945182 622.93920851 -270.75488281 617.07397461 C-267.12432005 602.28988157 -263.23236573 587.57379632 -258.9934082 572.95288086 C-257.44939833 567.61717226 -256.0165312 562.26990933 -254.70703125 556.87109375 C-253.23400129 550.88945275 -251.59735388 544.94938972 -250 539 C-249.33284863 536.5001293 -248.66617885 534.00013003 -248 531.5 C-246.66666667 526.5 -245.33333333 521.5 -244 516.5 C-243.68804688 515.33009521 -243.37609375 514.16019043 -243.0546875 512.95483398 C-242.39344124 510.47512233 -241.73195758 507.99547444 -241.0703125 505.51586914 C-239.37634303 499.16654609 -237.68515394 492.81651406 -236 486.46484375 C-235.33333333 483.95572917 -234.66666667 481.44661458 -234 478.9375 C-233.67 477.69162109 -233.34 476.44574219 -233 475.16210938 C-231.3873044 469.09875191 -229.73877021 463.05081299 -227.99609375 457.0234375 C-226.05216754 450.26997789 -224.29187475 443.4768556 -222.56454468 436.66519165 C-220.06851932 426.83266334 -217.5203552 417.02981169 -214.58447266 407.31762695 C-213.15411082 402.58024401 -211.90975396 397.8197312 -210.7421875 393.01171875 C-209.25658413 386.98329665 -207.60991364 380.99616893 -206 375 C-205.33284863 372.5001293 -204.66617885 370.00013003 -204 367.5 C-196 337.5 -196 337.5 -194.99609375 333.73828125 C-194.34049639 331.27786292 -193.68679907 328.81693739 -193.03515625 326.35546875 C-191.21564618 319.49394283 -189.35053211 312.64842997 -187.4375 305.8125 C-186.0603635 300.88914678 -184.71581133 295.96628016 -183.5 291 C-182.34517567 286.28446732 -181.06598391 281.61007578 -179.75 276.9375 C-177.56026683 269.15178207 -175.51573109 261.33243085 -173.5 253.5 C-171.37667735 245.25651206 -169.21148793 237.03104823 -166.90966797 228.83569336 C-162.56088635 213.33767459 -158.44368129 197.77720491 -154.4375 182.1875 C-152.09281619 173.06564458 -149.61494209 163.99513782 -146.99243164 154.94946289 C-145.44872727 149.61490282 -144.01625083 144.2687534 -142.70703125 138.87109375 C-141.23400129 132.88945275 -139.59735388 126.94938972 -138 121 C-137.33284863 118.5001293 -136.66617885 116.00013003 -136 113.5 C-132 98.5 -132 98.5 -131 94.79296875 C-130.30399066 92.15302707 -129.63658107 89.51715292 -129 86.86328125 C-128.83242187 86.18523437 -128.66484375 85.5071875 -128.4921875 84.80859375 C-128.02720479 82.92283056 -127.57567955 81.03376382 -127.125 79.14453125 C-125.15264271 73.63151867 -121.10994035 71.26780947 -116.22265625 68.34765625 C-115.38456421 67.84319221 -115.38456421 67.84319221 -114.52954102 67.32853699 C-113.33226042 66.60870053 -112.13340955 65.8914705 -110.93313599 65.17663574 C-108.39330151 63.66393076 -105.86115698 62.13856339 -103.32847595 60.61392212 C-102.04604205 59.84208982 -100.7632144 59.07091139 -99.47999573 58.30038452 C-93.97903779 54.99588332 -88.51310145 51.63693443 -83.0625 48.25 C-81.80034668 47.46665283 -81.80034668 47.46665283 -80.51269531 46.66748047 C-78.83828905 45.62784815 -77.16413192 44.58781448 -75.49023438 43.54736328 C-61.20667992 34.67195464 -46.90130037 25.8313017 -32.56640625 17.0390625 C-28.14423937 14.32553497 -23.73760169 11.58883153 -19.33984375 8.8359375 C-17.24745115 7.53636927 -15.15500549 6.23688645 -13.0625 4.9375 C-12.09135254 4.32334229 -11.12020508 3.70918457 -10.11962891 3.07641602 C-9.22550293 2.52397217 -8.33137695 1.97152832 -7.41015625 1.40234375 C-6.62777588 0.91241943 -5.84539551 0.42249512 -5.03930664 -0.08227539 C-3 -1 -3 -1 0 0 Z " fill="#566074" transform="translate(1612,526)"/>
<path d="M0 0 C1.27306881 -0.00224729 2.54613762 -0.00449459 3.85778427 -0.00680998 C5.28666492 -0.00424382 6.71554542 -0.00158689 8.14442575 0.00115067 C9.65606077 0.00041173 11.16769562 -0.00076611 12.67932999 -0.00234583 C16.86712454 -0.00543227 21.05489504 -0.00222538 25.24268781 0.0019323 C29.78579653 0.00535166 34.3289027 0.00299855 38.8720119 0.00135481 C46.84554659 -0.00072423 54.81907384 0.00093387 62.79260767 0.00499302 C74.64908083 0.01101219 86.50554928 0.0113303 98.3620237 0.01045103 C118.3036202 0.0091351 138.2452134 0.01248625 158.18680894 0.01846844 C177.94046868 0.0243791 197.69412703 0.0282331 217.44778764 0.02932125 C218.67456706 0.02938999 219.90134648 0.02945873 221.16530104 0.02952956 C227.39512287 0.02986787 233.6249447 0.03016926 239.85476653 0.03045643 C284.01672162 0.0325586 328.17867491 0.03930008 372.34062898 0.04875904 C383.04930817 0.05105067 393.75798737 0.05332601 404.46666658 0.05553395 C405.13080367 0.05567089 405.79494076 0.05580784 406.47920322 0.05594894 C437.34288965 0.06229092 468.20657623 0.06601793 499.07026315 0.06906874 C501.0735143 0.0692668 503.07676545 0.069466 505.0800166 0.06966542 C518.35546629 0.07098518 531.63091598 0.07225972 544.90636568 0.07350428 C571.95162266 0.07604071 598.99687961 0.07886196 626.04213655 0.08185536 C627.90751123 0.08206129 627.90751123 0.08206129 629.81057024 0.08227139 C712.89936661 0.09147694 795.98816198 0.10732271 879.07695711 0.1241985 C879.41821626 0.72271122 879.75947542 1.32122395 880.11107576 1.93787342 C881.67724497 4.68390845 883.24428223 7.42944719 884.81133211 10.17497975 C885.6164322 11.58704701 885.6164322 11.58704701 886.43779695 13.02764088 C889.88754814 19.06997225 893.38401769 25.07809218 896.96758211 31.04216725 C898.07695711 33.1241985 898.07695711 33.1241985 898.07695711 35.1241985 C898.73695711 35.1241985 899.39695711 35.1241985 900.07695711 35.1241985 C900.55262117 36.12773365 900.55262117 36.12773365 901.03789461 37.15154225 C905.12519756 45.56325689 909.78079887 53.54535469 914.56426179 61.57390553 C917.46920614 66.47142791 920.33382702 71.39255742 923.20195711 76.3116985 C923.80684968 77.34850758 924.41174226 78.38531666 925.03496492 79.4535442 C928.76943691 85.8611173 932.46954137 92.28603907 936.12773836 98.73747975 C937.64543773 101.3744444 939.18471491 103.99295002 940.74492586 106.60466725 C941.20415437 107.37560719 941.66338289 108.14654713 942.13652742 108.94084889 C943.03379885 110.44398521 943.93528448 111.94461651 944.84160554 113.44231373 C945.2479825 114.12366383 945.65435945 114.80501393 946.07305086 115.507011 C946.43584138 116.10916432 946.79863191 116.71131764 947.17241609 117.33171803 C948.15233409 119.27356902 948.73305868 120.97607934 949.07695711 123.1241985 C947.93242586 125.0460735 947.93242586 125.0460735 946.26445711 126.8741985 C945.72176179 127.48779225 945.17906648 128.101386 944.61992586 128.7335735 C943.07695711 130.1241985 943.07695711 130.1241985 941.07695711 130.1241985 C940.87457429 130.65529225 940.67219148 131.186386 940.46367586 131.7335735 C938.47243088 135.16636765 935.73230139 137.63318269 932.88945711 140.3741985 C928.64116027 144.53886515 924.55383722 148.73419716 920.70586336 153.27654225 C918.17363846 156.14882613 915.4271138 158.79644047 912.67851961 161.460136 C910.99066987 163.04842583 910.99066987 163.04842583 910.07695711 165.1241985 C909.41695711 165.1241985 908.75695711 165.1241985 908.07695711 165.1241985 C907.80907381 165.71877857 907.54119051 166.31335865 907.26518953 166.92595631 C906.06485038 169.14659607 904.86992713 170.54855919 903.06523836 172.2960735 C902.47557283 172.87413746 901.8859073 173.45220143 901.27837312 174.04778248 C900.65503084 174.65049977 900.03168855 175.25321705 899.38945711 175.8741985 C894.93508183 180.24726689 890.61842747 184.63539514 886.58086336 189.40154225 C884.44495334 191.84813008 882.12316886 194.08763287 879.80742586 196.36247975 C878.08244229 198.11861426 876.48513246 199.93784245 874.88945711 201.8116985 C871.29766242 205.98726117 867.40920665 209.82071995 863.49370515 213.6879192 C860.61958117 216.54030725 857.84784492 219.42996864 855.20195711 222.4991985 C854.65797273 223.12052662 854.11398836 223.74185475 853.55351961 224.382011 C852.0772995 226.08125084 852.0772995 226.08125084 850.85039461 227.803886 C845.99370381 233.79281145 838.22445742 234.48793412 831.07695711 236.1241985 C826.603779 237.35481081 822.18412051 238.71518999 817.76445711 240.1241985 C813.13363906 241.55717063 808.58462531 242.68600664 803.82305086 243.5616985 C800.26961861 244.28957082 796.76913768 245.19436797 793.26445711 246.1241985 C792.02051179 246.4541985 790.77656648 246.7841985 789.49492586 247.1241985 C786.18046014 248.0335957 786.18046014 248.0335957 783.48320711 249.16716725 C780.80593142 250.2319928 778.20709161 250.83633977 775.38945711 251.4366985 C769.06093249 252.84783709 762.83976775 254.53582635 756.60942781 256.32268482 C752.17505335 257.58359953 747.74689219 258.66807288 743.22637117 259.57707936 C740.99753356 260.09425575 740.99753356 260.09425575 738.64849031 261.09734303 C736.00500901 262.15292855 733.43279116 262.85978616 730.66680086 263.52654225 C729.08874666 263.9110857 729.08874666 263.9110857 727.47881258 264.30339772 C726.35620027 264.57426197 725.23358797 264.84512623 724.07695711 265.1241985 C719.26330669 266.30704995 714.45145133 267.49713055 709.63945711 268.6866985 C708.40002351 268.99027272 707.16058992 269.29384693 705.88359773 269.60662037 C704.69057039 269.90246022 703.49754304 270.19830006 702.26836336 270.50310475 C701.19787752 270.76679859 700.12739168 271.03049244 699.02446687 271.30217701 C696.26808435 272.07089564 693.72825204 273.05819217 691.07695711 274.1241985 C689.27180151 274.62399728 687.45694612 275.08961567 685.63555086 275.52654225 C684.05749666 275.9110857 684.05749666 275.9110857 682.44756258 276.30339772 C680.77911287 276.7096941 680.77911287 276.7096941 679.07695711 277.1241985 C674.42758332 278.29798788 669.78340791 279.49165858 665.13945711 280.6866985 C663.35184968 281.14205982 663.35184968 281.14205982 661.52812898 281.60662037 C660.38021883 281.90246022 659.23230867 282.19830006 658.04961336 282.50310475 C657.02102205 282.76679859 655.99243074 283.03049244 654.93267 283.30217701 C652.08872963 284.06795695 652.08872963 284.06795695 649.48467195 285.16863209 C647.15267555 286.0941476 645.04627829 286.60369268 642.58086336 287.03435475 C636.30438178 288.2259446 630.1762549 289.88509147 624.01445711 291.5616985 C622.89490633 291.86140553 621.77535554 292.16111256 620.62187898 292.46990162 C615.85331707 293.75923126 611.12284573 295.06852482 606.45586336 296.69060475 C600.51444869 298.72795138 594.38177788 299.91667471 588.24883211 301.22966725 C583.08575795 302.36179384 578.10732264 303.68368645 573.11406648 305.41912037 C565.83449617 307.93870319 558.3401339 309.88261732 550.82695711 311.5616985 C539.99913659 313.9883964 529.36001239 317.17543891 518.70195711 320.2491985 C513.64501183 321.69981937 508.57220574 323.02548254 503.46367586 324.2804485 C492.34397897 327.0507536 481.2870832 330.03494396 470.28008211 333.22185475 C466.30189884 334.34253808 462.3013393 335.34589935 458.28398836 336.31560475 C453.52899739 337.51448797 448.80519846 338.82435594 444.07695711 340.1241985 C431.7058311 343.52047341 419.34237765 346.88966346 406.86992586 349.897636 C405.80387117 350.15802662 404.73781648 350.41841725 403.63945711 350.6866985 C402.69199617 350.91486256 401.74453523 351.14302662 400.76836336 351.37810475 C398.07673345 352.06937985 398.07673345 352.06937985 395.58476961 353.132011 C392.86832674 354.20674073 390.24600755 354.82804788 387.38945711 355.4366985 C381.06093249 356.84783709 374.83976775 358.53582635 368.60942781 360.32268482 C364.17505335 361.58359953 359.74689219 362.66807288 355.22637117 363.57707936 C352.99701871 364.09438054 352.99701871 364.09438054 350.64556062 365.09856373 C348.0171529 366.14807812 345.46458381 366.84744927 342.71367586 367.507011 C341.65970613 367.7638567 340.6057364 368.0207024 339.5198282 368.28533131 C338.38368074 368.56215748 337.24753328 368.83898365 336.07695711 369.1241985 C331.01104273 370.40251976 325.94968116 371.69855297 320.88945711 372.9991985 C320.20886232 373.17405781 319.52826753 373.34891712 318.82704866 373.52907521 C310.30778193 375.72218719 301.82375787 377.99265773 293.40166414 380.53728443 C286.79725426 382.5311333 280.12047943 384.1577848 273.41289461 385.76091725 C266.75054587 387.38427828 260.16466433 389.22463295 253.57695711 391.1241985 C246.10941499 393.27746446 238.63532489 395.31106403 231.07695711 397.1241985 C228.97217529 397.64254029 226.86801213 398.16340032 224.76445711 398.6866985 C223.84019929 398.91486256 222.91594148 399.14302662 221.96367586 399.37810475 C217.53344074 400.52313168 213.14687288 401.8136589 208.75273836 403.08904225 C200.16055006 405.57389113 191.53244512 407.80803734 182.83867586 409.9054485 C181.78293367 410.163261 180.72719148 410.4210735 179.63945711 410.6866985 C178.69199617 410.91486256 177.74453523 411.14302662 176.76836336 411.37810475 C174.07673345 412.06937985 174.07673345 412.06937985 171.58476961 413.132011 C168.86832674 414.20674073 166.24600755 414.82804788 163.38945711 415.4366985 C157.08129926 416.84566346 150.88218964 418.53250628 144.66435945 420.28752857 C140.46220238 421.47041399 136.25841899 422.59818573 132.01445711 423.6241985 C127.34046198 424.76388498 122.74317377 426.10741421 118.13945711 427.4991985 C110.65209185 429.7578228 103.10002127 431.61664369 95.4717325 433.33660084 C91.47377446 434.2515487 87.57974558 435.24429996 83.70195711 436.585136 C78.25066858 438.46639545 72.67618048 439.76311391 67.07695711 441.1241985 C53.3378178 444.59574463 39.64065377 448.18468512 26.02983797 452.13079029 C20.69018696 453.675941 15.33862969 455.10865092 9.93633211 456.4210735 C0.08818474 458.84274908 -9.67392483 461.60472615 -19.43891203 464.33855397 C-23.607077 465.49978476 -27.77994927 466.60448607 -31.98554289 467.6241985 C-36.65954567 468.76388684 -41.2567789 470.10756036 -45.86054289 471.4991985 C-53.32079768 473.74733102 -60.84405688 475.60699491 -68.44037688 477.33660084 C-74.35085566 478.69449899 -80.13102741 480.33001777 -85.92304289 482.1241985 C-94.16171415 484.60067483 -102.45444586 486.84295682 -110.79804289 488.9366985 C-111.67758635 489.16792408 -112.55712981 489.39914967 -113.4633261 489.63738209 C-114.31370451 489.84572682 -115.16408293 490.05407154 -116.04023039 490.26872975 C-116.78901457 490.45798023 -117.53779875 490.64723072 -118.30927336 490.84221607 C-124.586093 491.51938091 -130.54906474 489.83995971 -136.48944914 487.97185475 C-137.19188246 487.7566367 -137.89431578 487.54141865 -138.61803496 487.31967884 C-140.90935046 486.61543732 -143.1974542 485.90134775 -145.48554289 485.1866985 C-147.11140989 484.68406531 -148.73738827 484.18179226 -150.36347258 483.67986256 C-161.37922668 480.27003989 -172.35918541 476.75412391 -183.32465422 473.18596607 C-198.75191624 468.17347452 -214.24633705 463.37357289 -229.73389494 458.55138355 C-231.66597479 457.94895735 -233.59758447 457.34502093 -235.52869475 456.73949391 C-240.19895141 455.27601587 -244.87382425 453.83558198 -249.56562102 452.44255787 C-250.45154936 452.17505726 -251.33747771 451.90755665 -252.25025237 451.63194996 C-253.91830034 451.12870379 -255.58923557 450.6348985 -257.26331389 450.15209156 C-259.18034469 449.56806162 -261.05789449 448.85721931 -262.92304289 448.1241985 C-263.92304289 445.1241985 -263.92304289 445.1241985 -262.74335539 442.7491985 C-262.18390227 441.8829485 -261.62444914 441.0166985 -261.04804289 440.1241985 C-259.30459863 437.39956002 -257.94906487 435.20226443 -256.92304289 432.1241985 C-256.26304289 432.1241985 -255.60304289 432.1241985 -254.92304289 432.1241985 C-254.81089446 431.57247975 -254.69874602 431.020761 -254.58319914 430.4523235 C-253.80943516 427.72354638 -252.65486595 425.39646907 -251.36054289 422.8741985 C-250.90550383 421.98216725 -250.45046477 421.090136 -249.98163664 420.1710735 C-249.45763274 419.15787037 -249.45763274 419.15787037 -248.92304289 418.1241985 C-248.26304289 418.1241985 -247.60304289 418.1241985 -246.92304289 418.1241985 C-246.26304289 415.8141985 -245.60304289 413.5041985 -244.92304289 411.1241985 C-244.26304289 411.1241985 -243.60304289 411.1241985 -242.92304289 411.1241985 C-242.54019133 410.11292897 -242.54019133 410.11292897 -242.14960539 409.08122975 C-240.69435484 405.57287093 -239.01356455 402.19741298 -237.29804289 398.8116985 C-236.97319914 398.16652272 -236.64835539 397.52134693 -236.31366789 396.85662037 C-235.51862333 395.27822308 -234.72108655 393.70108155 -233.92304289 392.1241985 C-233.26304289 392.1241985 -232.60304289 392.1241985 -231.92304289 392.1241985 C-231.77866789 391.5260735 -231.63429289 390.9279485 -231.48554289 390.3116985 C-231.035799 388.56269445 -230.49411948 386.83742827 -229.92304289 385.1241985 C-229.26304289 385.1241985 -228.60304289 385.1241985 -227.92304289 385.1241985 C-227.77866789 384.5260735 -227.63429289 383.9279485 -227.48554289 383.3116985 C-227.035799 381.56269445 -226.49411948 379.83742827 -225.92304289 378.1241985 C-225.26304289 378.1241985 -224.60304289 378.1241985 -223.92304289 378.1241985 C-223.92304289 377.1341985 -223.92304289 376.1441985 -223.92304289 375.1241985 C-223.26304289 375.1241985 -222.60304289 375.1241985 -221.92304289 375.1241985 C-221.81089446 374.56474537 -221.69874602 374.00529225 -221.58319914 373.428886 C-220.82388652 370.77803128 -219.70418367 368.65823291 -218.36054289 366.2491985 C-217.82042571 365.27853443 -217.28030852 364.30787037 -216.72382414 363.30779225 C-214.16014504 358.77547453 -211.58771145 354.248403 -208.99335539 349.7335735 C-207.62543614 347.35290499 -206.26622055 344.96763844 -204.91523039 342.5773235 C-200.96302128 335.59714987 -196.87726778 328.74113143 -192.58710539 321.96404225 C-191.08100013 319.39376401 -189.93825949 316.91860782 -188.92304289 314.1241985 C-188.26304289 314.1241985 -187.60304289 314.1241985 -186.92304289 314.1241985 C-186.67425383 313.26697193 -186.42546477 312.40974537 -186.16913664 311.52654225 C-184.82943072 307.86859911 -183.09404369 304.95742693 -180.98554289 301.6866985 C-178.13243844 297.255054 -175.88635789 292.99248113 -173.92304289 288.1241985 C-173.26304289 288.1241985 -172.60304289 288.1241985 -171.92304289 288.1241985 C-171.77866789 287.5260735 -171.63429289 286.9279485 -171.48554289 286.3116985 C-171.035799 284.56269445 -170.49411948 282.83742827 -169.92304289 281.1241985 C-169.26304289 281.1241985 -168.60304289 281.1241985 -167.92304289 281.1241985 C-167.63429289 280.2166985 -167.34554289 279.3091985 -167.04804289 278.3741985 C-166.15772514 275.80216942 -165.20809877 273.51073084 -163.92304289 271.1241985 C-163.26304289 271.1241985 -162.60304289 271.1241985 -161.92304289 271.1241985 C-161.81476164 270.57247975 -161.70648039 270.020761 -161.59491789 269.4523235 C-159.56730436 262.42640683 -154.88653707 255.86455207 -150.90351164 249.7804485 C-149.75599949 247.97498579 -149.75599949 247.97498579 -148.92304289 245.1241985 C-148.26304289 245.1241985 -147.60304289 245.1241985 -146.92304289 245.1241985 C-146.75482024 244.29662037 -146.75482024 244.29662037 -146.58319914 243.4523235 C-145.80943516 240.72354638 -144.65486595 238.39646907 -143.36054289 235.8741985 C-142.90550383 234.98216725 -142.45046477 234.090136 -141.98163664 233.1710735 C-141.45763274 232.15787037 -141.45763274 232.15787037 -140.92304289 231.1241985 C-140.26304289 231.1241985 -139.60304289 231.1241985 -138.92304289 231.1241985 C-138.8083969 230.55684986 -138.6937509 229.98950123 -138.57563078 229.40496022 C-137.85044593 226.87047577 -136.80415226 224.91151924 -135.48163664 222.632011 C-134.98405852 221.76858082 -134.48648039 220.90515064 -133.97382414 220.01555592 C-133.17524992 218.64620899 -133.17524992 218.64620899 -132.36054289 217.2491985 C-131.81913664 216.31116383 -131.27773039 215.37312916 -130.71991789 214.4066692 C-129.12489043 211.64354932 -127.52432281 208.88369819 -125.92304289 206.1241985 C-119.64075418 195.27636797 -119.64075418 195.27636797 -113.92304289 184.1241985 C-113.26304289 184.1241985 -112.60304289 184.1241985 -111.92304289 184.1241985 C-111.77866789 183.5260735 -111.63429289 182.9279485 -111.48554289 182.3116985 C-111.035799 180.56269445 -110.49411948 178.83742827 -109.92304289 177.1241985 C-109.26304289 177.1241985 -108.60304289 177.1241985 -107.92304289 177.1241985 C-107.68972258 176.288886 -107.45640227 175.4535735 -107.21601164 174.5929485 C-105.69835751 170.52141716 -103.61185265 167.237819 -101.23554289 163.6241985 C-96.5631392 156.35790488 -92.60916777 148.93585386 -88.92304289 141.1241985 C-88.26304289 141.1241985 -87.60304289 141.1241985 -86.92304289 141.1241985 C-86.75288664 140.28308522 -86.75288664 140.28308522 -86.57929289 139.42497975 C-84.2574201 131.2846043 -78.53883236 123.75648011 -74.17328703 116.53533131 C-71.776329 112.56620764 -69.45613617 108.57028617 -67.23554289 104.4991985 C-65.82989845 101.9556514 -64.38233806 99.43759539 -62.93109953 96.91985279 C-59.75144486 91.40095844 -56.68051474 85.86893151 -53.92304289 80.1241985 C-53.26304289 80.1241985 -52.60304289 80.1241985 -51.92304289 80.1241985 C-51.69616789 79.3198235 -51.46929289 78.5154485 -51.23554289 77.6866985 C-48.90127217 71.35082082 -45.41093651 65.83423937 -41.71015227 60.2047649 C-36.81944054 52.76389634 -32.72953486 45.17780528 -28.92304289 37.1241985 C-28.26304289 37.1241985 -27.60304289 37.1241985 -26.92304289 37.1241985 C-26.75482024 36.28501881 -26.75482024 36.28501881 -26.58319914 35.428886 C-25.82388652 32.77803128 -24.70418367 30.65823291 -23.36054289 28.2491985 C-22.82816008 27.29142506 -22.29577727 26.33365162 -21.74726164 25.34685475 C-19.39310235 21.18800803 -17.02851833 17.03516456 -14.63959563 12.89617115 C-12.97827805 10.0112682 -11.3677512 7.12417952 -9.92304289 4.1241985 C-9.26304289 4.1241985 -8.60304289 4.1241985 -7.92304289 4.1241985 C-7.92304289 3.1341985 -7.92304289 2.1441985 -7.92304289 1.1241985 C-5.19619237 -0.23922676 -3.0544779 -0.00043155 0 0 Z " fill="#545E71" transform="translate(563.9230428934097,233.8758015036583)"/>
<path d="M0 0 C15.4824066 -0.28421021 30.89778363 0.54543804 46.35234451 1.38057208 C50.00027279 1.57679292 53.64846943 1.76790415 57.29663086 1.95973206 C63.40870331 2.28186055 69.52057393 2.60760978 75.63232422 2.93579102 C82.6725329 3.31380029 89.71299173 3.68682414 96.75361443 4.05703682 C104.30086581 4.45393956 111.84792303 4.85444345 119.39492798 5.25600171 C121.5505318 5.37045827 123.70616963 5.48425417 125.86181641 5.59789848 C129.88850123 5.81039778 133.91495947 6.02693342 137.94140625 6.24389648 C139.12082291 6.30575638 140.30023956 6.36761627 141.51539612 6.43135071 C142.62221237 6.49162445 143.72902863 6.55189819 144.86938477 6.61399841 C146.29167137 6.69004633 146.29167137 6.69004633 147.74269104 6.76763058 C148.817603 6.84431249 149.89251495 6.9209944 151 7 C151.68185976 6.95226817 152.36371951 6.90453634 153.06624169 6.85535809 C160.69394665 6.7672836 164.78957849 10.54610774 170.06943798 15.60900399 C171.2124312 16.73290922 172.35500516 17.85724095 173.49720573 18.98195171 C174.73743719 20.17120377 175.97953492 21.35851207 177.22331917 22.54404792 C180.64533647 25.81705335 184.03947276 29.11774117 187.42955988 32.42376539 C191.12001284 36.01360499 194.83489118 39.57802492 198.54633725 43.14613229 C205.91033722 50.23424282 213.2494043 57.34768533 220.58053543 64.46976965 C226.68044738 70.39465606 232.79026925 76.30916281 238.90625572 82.217453 C282.26236929 124.10488402 325.40654494 166.20825944 368.4446106 208.42219543 C368.95354372 208.92138304 369.46247684 209.42057065 369.98683218 209.93488515 C393.18738017 232.69198675 416.36582 255.47145092 439.51421323 278.28160274 C449.26590536 287.89075175 459.02017105 297.49728747 468.77599445 307.10224202 C470.40965317 308.71067125 472.04323099 310.31918262 473.67680668 311.92769618 C507.88877113 345.61274507 542.3295975 379.05051445 576.91799673 412.34861245 C602.15807591 436.64731493 627.3555256 460.98430554 652.30208015 485.58479023 C653.07804516 486.34993716 653.07804516 486.34993716 653.86968622 487.13054161 C665.24845865 498.35210602 676.60700825 509.59392119 687.94687385 520.85479549 C692.51572518 525.39115477 697.08735025 529.92471554 701.65988541 534.45736122 C702.16012261 534.95337542 702.66035981 535.44938962 703.17575572 535.96043455 C718.09383136 550.75007911 733.18577332 565.33906381 748.42837746 579.79364634 C771.82095207 601.98276105 794.87840281 624.47598264 817.33544922 647.61791992 C818.19536013 648.50290516 819.05527103 649.3878904 819.94123985 650.29969337 C883.46497192 715.83327966 908.09069642 776.86715929 907.25686646 868.14814758 C907.10419835 877.51040787 906.6712206 886.85358804 906.13788678 896.20132253 C905.97655082 899.47594623 905.94584545 902.7225838 906 906 C901.43859132 903.98449384 898.28563839 901.76882051 895 898 C895 897.34 895 896.68 895 896 C893.68 895.34 892.36 894.68 891 894 C891 893.34 891 892.68 891 892 C890.4225 891.7525 889.845 891.505 889.25 891.25 C886.67060021 889.81700012 884.93878408 888.21575324 883 886 C883 885.34 883 884.68 883 884 C882.443125 883.773125 881.88625 883.54625 881.3125 883.3125 C878.33840412 881.62449964 876.27991135 879.53323483 874 877 C874 876.34 874 875.68 874 875 C873.443125 874.773125 872.88625 874.54625 872.3125 874.3125 C869.32038397 872.61427198 867.38399465 870.49235804 865 868 C863.66937393 866.66396489 862.33584195 865.33081999 861 864 C860.319375 863.31679687 859.63875 862.63359375 858.9375 861.9296875 C857.76057823 860.75751138 856.57523081 859.59361025 855.375 858.4453125 C854.21539443 857.33182761 853.10182553 856.17068962 852 855 C852 854.34 852 853.68 852 853 C851.4225 852.773125 850.845 852.54625 850.25 852.3125 C847.41565264 850.6591307 846.03237811 848.57036056 844 846 C842.93527218 845.08213119 841.85122697 844.18624346 840.75 843.3125 C839.8425 842.549375 838.935 841.78625 838 841 C838 840.34 838 839.68 838 839 C837.41476562 838.75378906 836.82953125 838.50757813 836.2265625 838.25390625 C833.65597983 836.80626232 832.24544307 835.20757518 830.375 832.9375 C828.04514448 830.02124288 828.04514448 830.02124288 825 828 C825 827.34 825 826.68 825 826 C824.34 826 823.68 826 823 826 C823 825.34 823 824.68 823 824 C822.4225 823.7525 821.845 823.505 821.25 823.25 C818.67060021 821.81700012 816.93878408 820.21575324 815 818 C815 817.34 815 816.68 815 816 C814.38125 815.7525 813.7625 815.505 813.125 815.25 C810.64931313 813.79371361 810.04874998 812.62187494 809 810 C808.34 810 807.68 810 807 810 C807 809.34 807 808.68 807 808 C806.01 807.67 805.02 807.34 804 807 C804 806.34 804 805.68 804 805 C803.443125 804.773125 802.88625 804.54625 802.3125 804.3125 C798.31561114 802.04399551 795.46033351 799.38100054 794 795 C793.34 795 792.68 795 792 795 C792 794.34 792 793.68 792 793 C791.01 792.67 790.02 792.34 789 792 C789 791.34 789 790.68 789 790 C788.01 789.67 787.02 789.34 786 789 C786 788.34 786 787.68 786 787 C785.34 787 784.68 787 784 787 C784 786.34 784 785.68 784 785 C783.443125 784.773125 782.88625 784.54625 782.3125 784.3125 C778.25342254 782.00869928 775.48062113 778.5915337 772.5625 775 C769.93820239 771.92765158 767.10305001 769.57487128 764 767 C763.360625 766.195625 762.72125 765.39125 762.0625 764.5625 C759.76957562 761.71371516 757.24125683 759.60175701 754.390625 757.33203125 C753.93171875 756.89246094 753.4728125 756.45289063 753 756 C753 755.34 753 754.68 753 754 C751.68 753.34 750.36 752.68 749 752 C749 751.34 749 750.68 749 750 C748.01 749.67 747.02 749.34 746 749 C746 748.34 746 747.68 746 747 C745.46375 746.79375 744.9275 746.5875 744.375 746.375 C741.08021991 744.46749574 738.40636372 741.95180616 736 739 C736 738.34 736 737.68 736 737 C734.68 736.34 733.36 735.68 732 735 C732 734.34 732 733.68 732 733 C731.38125 732.7525 730.7625 732.505 730.125 732.25 C727.59641373 730.76259631 727.28160996 729.56321991 726 727 C723.9664052 725.73195434 723.9664052 725.73195434 722 725 C722 724.34 722 723.68 722 723 C721.01 722.67 720.02 722.34 719 722 C719 721.34 719 720.68 719 720 C718.01 719.67 717.02 719.34 716 719 C716 718.34 716 717.68 716 717 C715.401875 716.731875 714.80375 716.46375 714.1875 716.1875 C712.00152146 715.00082594 710.58667406 713.90400887 709 712 C709 711.34 709 710.68 709 710 C708.34 710 707.68 710 707 710 C707 709.34 707 708.68 707 708 C706.01 707.67 705.02 707.34 704 707 C702.29115995 705.37660195 700.62553283 703.70680947 699 702 C698.1028125 701.1646875 698.1028125 701.1646875 697.1875 700.3125 C696 699 696 699 696 697 C695.443125 696.773125 694.88625 696.54625 694.3125 696.3125 C691.3530491 694.63281165 689.33873216 692.45866715 687 690 C686.1028125 689.1646875 686.1028125 689.1646875 685.1875 688.3125 C684 687 684 687 684 685 C683.34 685 682.68 685 682 685 C679.875 683.125 679.875 683.125 678 681 C678 680.34 678 679.68 678 679 C676.68 678.34 675.36 677.68 674 677 C674 676.34 674 675.68 674 675 C673.38125 674.7525 672.7625 674.505 672.125 674.25 C669.61289704 672.77229238 669.23892656 671.56044823 668 669 C667.01 668.67 666.02 668.34 665 668 C662.8125 666.0625 662.8125 666.0625 661 664 C661 663.34 661 662.68 661 662 C660.01 661.67 659.02 661.34 658 661 C658 660.34 658 659.68 658 659 C657.401875 658.731875 656.80375 658.46375 656.1875 658.1875 C654.00152146 657.00082594 652.58667406 655.90400887 651 654 C651 653.34 651 652.68 651 652 C650.34 652 649.68 652 649 652 C649 651.34 649 650.68 649 650 C648.34 650 647.68 650 647 650 C647 649.34 647 648.68 647 648 C646.46375 647.79375 645.9275 647.5875 645.375 647.375 C642.08021991 645.46749574 639.40636372 642.95180616 637 640 C637 639.34 637 638.68 637 638 C636.01 637.67 635.02 637.34 634 637 C629.22727273 632.68181818 629.22727273 632.68181818 628 629 C625.99983534 627.79117904 625.99983534 627.79117904 624 627 C624 626.34 624 625.68 624 625 C623.01 624.67 622.02 624.34 621 624 C619.67578125 622.6171875 619.67578125 622.6171875 618.3125 620.875 C615.43727621 617.38314467 612.26897446 614.50352032 608.8359375 611.5703125 C606.77330028 609.80609938 604.80464455 608.03022512 603 606 C603 605.34 603 604.68 603 604 C602.360625 603.731875 601.72125 603.46375 601.0625 603.1875 C599 602 599 602 598 599 C597.34 598.67 596.68 598.34 596 598 C594 597 594 597 593 594 C590.99983534 592.79117904 590.99983534 592.79117904 589 592 C589 591.34 589 590.68 589 590 C588.46375 589.79375 587.9275 589.5875 587.375 589.375 C584.08021991 587.46749574 581.40636372 584.95180616 579 582 C579 581.34 579 580.68 579 580 C578.01 579.67 577.02 579.34 576 579 C576 578.34 576 577.68 576 577 C575.44828125 576.773125 574.8965625 576.54625 574.328125 576.3125 C571.31307583 574.61274074 569.18769631 572.45195184 566.75 570 C565.85796875 569.113125 564.9659375 568.22625 564.046875 567.3125 C562 565 562 565 562 563 C560.68 562.34 559.36 561.68 558 561 C558 560.34 558 559.68 558 559 C557.01 558.67 556.02 558.34 555 558 C555 557.34 555 556.68 555 556 C554.443125 555.773125 553.88625 555.54625 553.3125 555.3125 C549.31561114 553.04399551 546.46033351 550.38100054 545 546 C543.67889311 545.3094214 542.34410537 544.64467276 541 544 C539.578125 542.51953125 539.578125 542.51953125 538.25 540.8125 C536.08296307 538.17413254 533.86799304 535.94045789 531.25 533.75 C526.80653196 529.9914596 523.03085143 525.71643216 519.19921875 521.35546875 C517.03678649 518.85868752 517.03678649 518.85868752 514 517 C514 516.34 514 515.68 514 515 C513.38125 514.7525 512.7625 514.505 512.125 514.25 C509.59641373 512.76259631 509.28160996 511.56321991 508 509 C506.67592331 508.31513275 505.34090759 507.65129797 504 507 C502.83432426 505.9009343 501.67504005 504.79312383 500.5703125 503.6328125 C499.29898437 502.31088424 497.99414479 501.02123854 496.6796875 499.7421875 C495.44605469 498.53949219 495.44605469 498.53949219 494.1875 497.3125 C493.39730469 496.54550781 492.60710937 495.77851562 491.79296875 494.98828125 C490 493 490 493 490 491 C489.01 490.67 488.02 490.34 487 490 C487 489.34 487 488.68 487 488 C486.34 488 485.68 488 485 488 C485 487.34 485 486.68 485 486 C484.34 486 483.68 486 483 486 C483 485.34 483 484.68 483 484 C482.10087891 483.60941406 482.10087891 483.60941406 481.18359375 483.2109375 C478.85061626 481.91715749 477.70222219 480.70531236 476.0625 478.625 C473.61332942 475.64661165 471.06523286 473.35787143 468 471 C465.24446173 468.38223864 462.71181235 465.69109255 460.3125 462.75 C458.2957678 459.98257806 458.2957678 459.98257806 456 459 C456 458.34 456 457.68 456 457 C455.401875 456.731875 454.80375 456.46375 454.1875 456.1875 C452.00152146 455.00082594 450.58667406 453.90400887 449 452 C449 451.34 449 450.68 449 450 C448.01 449.67 447.02 449.34 446 449 C446 448.34 446 447.68 446 447 C444.68 446.34 443.36 445.68 442 445 C442 444.34 442 443.68 442 443 C441.195625 442.690625 441.195625 442.690625 440.375 442.375 C437.08021991 440.46749574 434.40636372 437.95180616 432 435 C432 434.34 432 433.68 432 433 C431.01 432.67 430.02 432.34 429 432 C429 431.34 429 430.68 429 430 C427.68 429.34 426.36 428.68 425 428 C425 427.34 425 426.68 425 426 C424.38125 425.7525 423.7625 425.505 423.125 425.25 C420.64931313 423.79371361 420.04874998 422.62187494 419 420 C418.34 420 417.68 420 417 420 C417 419.34 417 418.68 417 418 C416.34 418 415.68 418 415 418 C415 417.34 415 416.68 415 416 C413.68 415.34 412.36 414.68 411 414 C411 413.34 411 412.68 411 412 C410.41476562 411.75378906 409.82953125 411.50757813 409.2265625 411.25390625 C406.65597983 409.80626232 405.24544307 408.20757518 403.375 405.9375 C401.04514448 403.02124288 401.04514448 403.02124288 398 401 C398 400.34 398 399.68 398 399 C397.195625 398.690625 397.195625 398.690625 396.375 398.375 C393.08021991 396.46749574 390.40636372 393.95180616 388 391 C388 390.34 388 389.68 388 389 C386.68 388.34 385.36 387.68 384 387 C384 386.34 384 385.68 384 385 C383.1646875 384.6596875 383.1646875 384.6596875 382.3125 384.3125 C379.34746553 382.6296426 377.34646311 380.46378626 375 378 C373.8553125 376.9171875 373.8553125 376.9171875 372.6875 375.8125 C371 374 371 374 371 372 C369.68 371.34 368.36 370.68 367 370 C367 369.34 367 368.68 367 368 C366.1646875 367.6596875 366.1646875 367.6596875 365.3125 367.3125 C361.31561114 365.04399551 358.46033351 362.38100054 357 358 C356.01 357.67 355.02 357.34 354 357 C350.49104581 353.77555561 347.44612435 350.22757319 344.4296875 346.55078125 C342.88518193 344.75318225 342.88518193 344.75318225 340 343 C340 342.34 340 341.68 340 341 C338.68 340.34 337.36 339.68 336 339 C336 338.34 336 337.68 336 337 C335.01 336.67 334.02 336.34 333 336 C333 335.34 333 334.68 333 334 C332.34 334 331.68 334 331 334 C328.375 331.625 328.375 331.625 326 329 C326 328.34 326 327.68 326 327 C325.1646875 326.690625 325.1646875 326.690625 324.3125 326.375 C321.14009255 324.48870368 319.32257302 321.84515195 317 319 C315.67098936 317.99426222 314.33926199 316.99204592 313 316 C313 315.34 313 314.68 313 314 C311.68 313.34 310.36 312.68 309 312 C309 311.34 309 310.68 309 310 C308.401875 309.731875 307.80375 309.46375 307.1875 309.1875 C305.00152146 308.00082594 303.58667406 306.90400887 302 305 C302 304.34 302 303.68 302 303 C301.34 303 300.68 303 300 303 C300 302.34 300 301.68 300 301 C299.01 300.67 298.02 300.34 297 300 C297 299.34 297 298.68 297 298 C296.34 298 295.68 298 295 298 C293.375 296.625 293.375 296.625 292 295 C292 294.34 292 293.68 292 293 C291.01 292.67 290.02 292.34 289 292 C289 291.34 289 290.68 289 290 C288.01 289.67 287.02 289.34 286 289 C286 288.34 286 287.68 286 287 C285.01 286.67 284.02 286.34 283 286 C281.28769752 284.38025441 279.62836738 282.7041054 278 281 C277.18015625 280.21109375 277.18015625 280.21109375 276.34375 279.40625 C274.85760866 277.97618946 273.42485781 276.49113026 272 275 C272 274.34 272 273.68 272 273 C271.01 272.67 270.02 272.34 269 272 C267.29115995 270.37660195 265.62553283 268.70680947 264 267 C263.401875 266.443125 262.80375 265.88625 262.1875 265.3125 C261 264 261 264 261 262 C260.38125 261.7525 259.7625 261.505 259.125 261.25 C256.61289704 259.77229238 256.23892656 258.56044823 255 256 C254.01 255.67 253.02 255.34 252 255 C248.86996295 252.17533241 246.86436281 249.72872563 245 246 C244.01 245.67 243.02 245.34 242 245 C240.31267723 243.01739574 238.64633943 241.0167658 237 239 C236.01 238.34 235.02 237.68 234 237 C234 236.34 234 235.68 234 235 C232.68 234.34 231.36 233.68 230 233 C230 232.34 230 231.68 230 231 C229.34 231 228.68 231 228 231 C228 230.34 228 229.68 228 229 C227.34 229 226.68 229 226 229 C226 228.34 226 227.68 226 227 C225.34 227 224.68 227 224 227 C224 226.34 224 225.68 224 225 C222.68 224.34 221.36 223.68 220 223 C220 222.34 220 221.68 220 221 C219.401875 220.731875 218.80375 220.46375 218.1875 220.1875 C216.00152146 219.00082594 214.58667406 217.90400887 213 216 C213 215.34 213 214.68 213 214 C212.34 214 211.68 214 211 214 C211 213.34 211 212.68 211 212 C209.68 211.34 208.36 210.68 207 210 C207 209.34 207 208.68 207 208 C206.360625 207.731875 205.72125 207.46375 205.0625 207.1875 C203 206 203 206 202 203 C201.13375 202.566875 201.13375 202.566875 200.25 202.125 C197.20774755 200.60387378 195.26157493 198.51286104 193 196 C193 195.34 193 194.68 193 194 C192.46375 193.79375 191.9275 193.5875 191.375 193.375 C188.08021991 191.46749574 185.40636372 188.95180616 183 186 C183 185.34 183 184.68 183 184 C182.01 183.67 181.02 183.34 180 183 C178.82711685 181.59254022 177.65857242 180.18107915 176.51953125 178.74609375 C174.22797352 176.11286417 171.58471558 173.93805198 168.9375 171.671875 C166.47784158 169.54942782 164.19289877 167.39848303 162 165 C162 164.34 162 163.68 162 163 C161.38125 162.7525 160.7625 162.505 160.125 162.25 C157.61289704 160.77229238 157.23892656 159.56044823 156 157 C155.01 156.67 154.02 156.34 153 156 C150.50699899 153.7502186 148.41399245 151.8523374 146.9375 148.8125 C146.1497919 146.84896812 146.1497919 146.84896812 144.17578125 146.10546875 C141.7378473 144.86680572 140.17088575 143.43730358 138.25 141.5 C137.63640625 140.8915625 137.0228125 140.283125 136.390625 139.65625 C135 138 135 138 135 136 C133.68 135.34 132.36 134.68 131 134 C131 133.34 131 132.68 131 132 C130.4328125 131.77183594 129.865625 131.54367187 129.28125 131.30859375 C126.3881571 129.64902847 124.66794794 127.59053518 122.5 125.0625 C120.33230561 122.54218409 118.39111802 120.28998991 115.71875 118.30859375 C115.1515625 117.87675781 114.584375 117.44492187 114 117 C114 116.34 114 115.68 114 115 C113.195625 114.690625 113.195625 114.690625 112.375 114.375 C109.08021991 112.46749574 106.40636372 109.95180616 104 107 C104 106.34 104 105.68 104 105 C103.195625 104.690625 103.195625 104.690625 102.375 104.375 C99.08021991 102.46749574 96.40636372 99.95180616 94 97 C94 96.34 94 95.68 94 95 C93.34 95 92.68 95 92 95 C87.23255814 90.69767442 87.23255814 90.69767442 86 87 C85.34 86.67 84.68 86.34 84 86 C82 85 82 85 81 82 C79.68837887 81.29157058 78.35185851 80.62825217 77 80 C75.43188477 78.67480469 75.43188477 78.67480469 73.94140625 77.171875 C73.39033203 76.61886719 72.83925781 76.06585937 72.27148438 75.49609375 C71.70751953 74.91988281 71.14355469 74.34367188 70.5625 73.75 C70.00240234 73.18925781 69.44230469 72.62851562 68.86523438 72.05078125 C66.2063143 69.36393786 63.65962846 66.64529982 61.265625 63.71875 C59.07628683 60.9073102 59.07628683 60.9073102 56.1875 58.75 C55.465625 58.1725 54.74375 57.595 54 57 C54 56.34 54 55.68 54 55 C52.68 54.34 51.36 53.68 50 53 C50 52.34 50 51.68 50 51 C49.4328125 50.76023437 48.865625 50.52046875 48.28125 50.2734375 C45.53253825 48.73905388 43.69019462 46.88270062 41.5 44.625 C40.7471875 43.85414063 39.994375 43.08328125 39.21875 42.2890625 C38.4865625 41.53367187 37.754375 40.77828125 37 40 C36.2471875 39.28585937 35.494375 38.57171875 34.71875 37.8359375 C33 36 33 36 33 34 C32.443125 33.773125 31.88625 33.54625 31.3125 33.3125 C27.31561114 31.04399551 24.46033351 28.38100054 23 24 C22.34 23.67 21.68 23.34 21 23 C19 22 19 22 18 19 C17.34 19 16.68 19 16 19 C16 18.34 16 17.68 16 17 C15.360625 16.731875 14.72125 16.46375 14.0625 16.1875 C12 15 12 15 11 12 C10.360625 11.690625 9.72125 11.38125 9.0625 11.0625 C6.513651 9.74945658 6.21754073 8.51625085 5 6 C4.01 5.67 3.02 5.34 2 5 C0.8125 2.4375 0.8125 2.4375 0 0 Z " fill="#4D5667" transform="translate(198,859)"/>
<path d="M0 0 C-1.9667561 9.61086424 -4.25505433 19.07287924 -6.81640625 28.54296875 C-7.18874219 29.92985453 -7.56076242 31.31682509 -7.93249512 32.70387268 C-8.93038408 36.4238676 -9.93256432 40.1426937 -10.93556595 43.86131287 C-12.00123008 47.8153718 -13.06277416 51.77053671 -14.12475586 55.72558594 C-15.88444066 62.27710025 -17.6464137 68.82799493 -19.41015625 75.37841797 C-21.81912498 84.32541935 -24.22293832 93.27379837 -26.625 102.22265625 C-27.36844683 104.99203622 -28.11194446 107.76140255 -28.85546875 110.53076172 C-29.03790131 111.21025879 -29.22033386 111.88975586 -29.40829468 112.58984375 C-31.43752087 120.14749617 -33.46857861 127.70465612 -35.5 135.26171875 C-35.77461563 136.2833247 -35.77461563 136.2833247 -36.05477905 137.32556915 C-38.16622024 145.18023597 -40.27820629 153.03475617 -42.390625 160.88916016 C-44.58717679 169.05640059 -46.78329596 177.22375723 -48.97883606 185.39126968 C-49.36678726 186.83444846 -49.75475712 188.27762221 -50.14274597 189.72079086 C-54.74445006 206.837634 -59.33272077 223.95773258 -63.84866333 241.09744263 C-65.8645807 248.74816746 -67.91856723 256.38443984 -70.06323242 264 C-72.16327617 271.49953046 -74.13828284 279.03236155 -76.125 286.5625 C-79.43102168 299.09074689 -82.76310077 311.61162801 -86.125 324.125 C-86.35275116 324.9727298 -86.58050232 325.82045959 -86.81515503 326.69387817 C-87.04751862 327.55874847 -87.2798822 328.42361877 -87.51928711 329.31469727 C-88.00114523 331.10823409 -88.48299734 332.90177253 -88.96484375 334.6953125 C-89.20968002 335.60657394 -89.4545163 336.51783539 -89.70677185 337.45671082 C-91.53944163 344.27984656 -93.36648696 351.10447513 -95.19140625 357.9296875 C-101.08648399 379.97236504 -106.99882635 402.0102005 -112.9453125 424.0390625 C-113.47343815 425.99582827 -114.00156008 427.95259504 -114.52967834 429.90936279 C-118.74163732 445.51422892 -118.74163732 445.51422892 -120.84506226 453.29443359 C-126.18315176 473.03919861 -131.49196253 492.79036572 -136.68131065 512.57479668 C-141.36550507 530.43232663 -146.13940771 548.26538811 -150.92873764 566.0949707 C-151.63972846 568.74234133 -152.35027652 571.38983044 -153.06069946 574.03735352 C-159.55879079 598.25275384 -166.09980613 622.45606798 -172.68005371 646.64926147 C-176.86927757 662.05827766 -180.99052823 677.48219891 -185.0085144 692.93670654 C-189.49648349 710.19101105 -194.11769485 727.40903001 -198.75 744.625 C-198.94419903 745.34680954 -199.13839806 746.06861908 -199.3384819 746.81230164 C-201.10145027 753.36489512 -202.86483618 759.91737619 -204.62870789 766.46972656 C-208.2421242 779.89367744 -211.84199181 793.32124176 -215.4375 806.75 C-216.03270793 808.97233258 -216.62792281 811.1946633 -217.22314453 813.41699219 C-220.38094856 825.2087329 -223.5353783 837.00137221 -226.68733215 848.79467773 C-228.19519574 854.43642337 -229.70361155 860.07802134 -231.21211147 865.71959686 C-232.26251517 869.64817369 -233.31256824 873.57684354 -234.36178589 877.5057373 C-241.97405127 906.00998234 -241.97405127 906.00998234 -245.36381531 918.10888672 C-247.26969942 924.9249232 -249.06294498 931.76923148 -250.84848022 938.61761475 C-255.0511693 954.7241849 -259.3525107 970.80359693 -263.6875 986.875 C-264.28752341 989.10001435 -264.88753961 991.32503065 -265.48754883 993.55004883 C-265.93870308 995.22305305 -265.93870308 995.22305305 -266.39897156 996.92985535 C-266.70172501 998.05257339 -267.00447845 999.17529144 -267.31640625 1000.33203125 C-267.62121414 1001.46228226 -267.92602203 1002.59253326 -268.24006653 1003.7570343 C-271.54688721 1016.0223497 -274.83837172 1028.29176014 -278.125 1040.5625 C-278.42763763 1041.69234314 -278.73027527 1042.82218628 -279.04208374 1043.98626709 C-284.92670128 1065.9599117 -290.78616341 1087.94025282 -296.64526367 1109.92071152 C-310.54522785 1162.06606964 -310.54522785 1162.06606964 -315.95410156 1182.17993164 C-316.53975477 1184.35822459 -317.12536764 1186.53652839 -317.7109375 1188.71484375 C-317.99094604 1189.75631058 -318.27095459 1190.7977774 -318.55944824 1191.87080383 C-320.16373513 1197.84881292 -321.74638593 1203.83196967 -323.30697632 1209.8215332 C-324.23460521 1213.37876515 -325.17091483 1216.93368046 -326.1083374 1220.48834229 C-326.53050761 1222.09972095 -326.94815745 1223.71229185 -327.36090088 1225.32611084 C-327.91173906 1227.47962775 -328.47740485 1229.62869294 -329.046875 1231.77734375 C-329.35463867 1232.96577881 -329.66240234 1234.15421387 -329.97949219 1235.37866211 C-330.48464355 1236.67622437 -330.48464355 1236.67622437 -331 1238 C-331.99 1238.33 -332.98 1238.66 -334 1239 C-339.13281651 1224.02023943 -343.90793461 1208.946149 -348.5625 1193.8125 C-352.0845597 1182.36206547 -355.60504559 1170.9220663 -359.46899414 1159.58129883 C-362.11815237 1151.76436474 -364.55394763 1143.88216497 -367 1136 C-369.75045149 1127.13795966 -372.52485529 1118.28987598 -375.5 1109.5 C-378.33087985 1101.0834966 -381.10030117 1092.64751567 -383.79907227 1084.18774414 C-384.26282577 1082.74027108 -384.73070181 1081.29411176 -385.20288086 1079.84936523 C-385.86529829 1077.8196654 -386.51244507 1075.78566802 -387.15625 1073.75 C-387.53587891 1072.56921875 -387.91550781 1071.3884375 -388.30664062 1070.171875 C-389.02835258 1066.87029694 -388.92668369 1065.20144625 -388 1062 C-387.67286011 1060.65711914 -387.67286011 1060.65711914 -387.33911133 1059.28710938 C-386.49978105 1056.02397947 -385.65893297 1052.76129632 -384.8125 1049.5 C-384.34602051 1047.69970337 -384.34602051 1047.69970337 -383.87011719 1045.86303711 C-381.69466035 1037.52470802 -379.39340602 1029.23084455 -376.99389648 1020.95458984 C-375.44973383 1015.61830699 -374.01667139 1010.2704873 -372.70703125 1004.87109375 C-371.23400129 998.88945275 -369.59735388 992.94938972 -368 987 C-367.33284863 984.5001293 -366.66617885 982.00013003 -366 979.5 C-363.33333333 969.5 -360.66666667 959.5 -358 949.5 C-357.66613281 948.24703125 -357.33226562 946.9940625 -356.98828125 945.703125 C-356.3626463 943.35884857 -355.73526245 941.01503759 -355.10546875 938.671875 C-353.45816309 932.5312803 -351.83905123 926.38550937 -350.26171875 920.2265625 C-349.95145752 919.01838867 -349.64119629 917.81021484 -349.3215332 916.56542969 C-348.69871415 914.13712616 -348.07868236 911.70810575 -347.46166992 909.27832031 C-347.17267822 908.15264648 -346.88368652 907.02697266 -346.5859375 905.8671875 C-346.19994385 904.35294189 -346.19994385 904.35294189 -345.80615234 902.80810547 C-345.03231496 900.11256411 -344.04680215 897.59861953 -343 895 C-342.61825838 893.59606617 -342.27013697 892.182536 -341.95703125 890.76171875 C-341.77382324 889.953396 -341.59061523 889.14507324 -341.40185547 888.31225586 C-341.20736816 887.44608643 -341.01288086 886.57991699 -340.8125 885.6875 C-338.7009746 876.52918398 -336.20454444 867.52391031 -333.49926758 858.52416992 C-331.76640094 852.73883181 -330.1945182 846.93920851 -328.75488281 841.07397461 C-325.12432005 826.28988157 -321.23236573 811.57379632 -316.9934082 796.95288086 C-315.44939833 791.61717226 -314.0165312 786.26990933 -312.70703125 780.87109375 C-311.23400129 774.88945275 -309.59735388 768.94938972 -308 763 C-307.33284863 760.5001293 -306.66617885 758.00013003 -306 755.5 C-304.9912038 751.71404718 -303.98082018 747.92856421 -302.96484375 744.14453125 C-301.4691198 738.56542405 -299.98656325 732.98846251 -298.625 727.375 C-297.28835836 721.95618255 -295.74461926 716.60835129 -294.1875 711.25 C-291.55553453 702.19133471 -289.21471867 693.07764693 -287.00463867 683.90722656 C-286.77107666 682.9478418 -286.53751465 681.98845703 -286.296875 681 C-286.09416992 680.154375 -285.89146484 679.30875 -285.68261719 678.4375 C-284.96289304 675.8674979 -283.99331512 673.47527918 -283 671 C-282.61825838 669.59606617 -282.27013697 668.182536 -281.95703125 666.76171875 C-281.77382324 665.953396 -281.59061523 665.14507324 -281.40185547 664.31225586 C-281.20736816 663.44608643 -281.01288086 662.57991699 -280.8125 661.6875 C-278.7009746 652.52918398 -276.20454444 643.52391031 -273.49926758 634.52416992 C-271.76640094 628.73883181 -270.1945182 622.93920851 -268.75488281 617.07397461 C-265.12432005 602.28988157 -261.23236573 587.57379632 -256.9934082 572.95288086 C-255.44939833 567.61717226 -254.0165312 562.26990933 -252.70703125 556.87109375 C-251.23400129 550.88945275 -249.59735388 544.94938972 -248 539 C-247.33284863 536.5001293 -246.66617885 534.00013003 -246 531.5 C-244.66666667 526.5 -243.33333333 521.5 -242 516.5 C-241.68804688 515.33009521 -241.37609375 514.16019043 -241.0546875 512.95483398 C-240.39344124 510.47512233 -239.73195758 507.99547444 -239.0703125 505.51586914 C-237.37634303 499.16654609 -235.68515394 492.81651406 -234 486.46484375 C-233.33333333 483.95572917 -232.66666667 481.44661458 -232 478.9375 C-231.67 477.69162109 -231.34 476.44574219 -231 475.16210938 C-229.3873044 469.09875191 -227.73877021 463.05081299 -225.99609375 457.0234375 C-224.05216754 450.26997789 -222.29187475 443.4768556 -220.56454468 436.66519165 C-218.06851932 426.83266334 -215.5203552 417.02981169 -212.58447266 407.31762695 C-211.15411082 402.58024401 -209.90975396 397.8197312 -208.7421875 393.01171875 C-207.25658413 386.98329665 -205.60991364 380.99616893 -204 375 C-203.33284863 372.5001293 -202.66617885 370.00013003 -202 367.5 C-194 337.5 -194 337.5 -192.99609375 333.73828125 C-192.34049639 331.27786292 -191.68679907 328.81693739 -191.03515625 326.35546875 C-189.21564618 319.49394283 -187.35053211 312.64842997 -185.4375 305.8125 C-184.0603635 300.88914678 -182.71581133 295.96628016 -181.5 291 C-180.34517567 286.28446732 -179.06598391 281.61007578 -177.75 276.9375 C-175.56026683 269.15178207 -173.51573109 261.33243085 -171.5 253.5 C-169.37667735 245.25651206 -167.21148793 237.03104823 -164.90966797 228.83569336 C-160.56088635 213.33767459 -156.44368129 197.77720491 -152.4375 182.1875 C-150.09281619 173.06564458 -147.61494209 163.99513782 -144.99243164 154.94946289 C-143.44872727 149.61490282 -142.01625083 144.2687534 -140.70703125 138.87109375 C-139.23400129 132.88945275 -137.59735388 126.94938972 -136 121 C-135.33284863 118.5001293 -134.66617885 116.00013003 -134 113.5 C-130 98.5 -130 98.5 -129 94.79296875 C-128.30399066 92.15302707 -127.63658107 89.51715292 -127 86.86328125 C-126.83242187 86.18523437 -126.66484375 85.5071875 -126.4921875 84.80859375 C-126.02720479 82.92283056 -125.57567955 81.03376382 -125.125 79.14453125 C-123.15264271 73.63151867 -119.10994035 71.26780947 -114.22265625 68.34765625 C-113.38456421 67.84319221 -113.38456421 67.84319221 -112.52954102 67.32853699 C-111.33226042 66.60870053 -110.13340955 65.8914705 -108.93313599 65.17663574 C-106.39330151 63.66393076 -103.86115698 62.13856339 -101.32847595 60.61392212 C-100.04604205 59.84208982 -98.7632144 59.07091139 -97.47999573 58.30038452 C-91.97903779 54.99588332 -86.51310145 51.63693443 -81.0625 48.25 C-79.80034668 47.46665283 -79.80034668 47.46665283 -78.51269531 46.66748047 C-76.83828905 45.62784815 -75.16413192 44.58781448 -73.49023438 43.54736328 C-69.26696674 40.92314071 -65.03988604 38.30508145 -60.8125 35.6875 C-59.95857666 35.15866211 -59.10465332 34.62982422 -58.22485352 34.08496094 C-50.06154789 29.03238378 -41.88651292 23.99887107 -33.70410156 18.97729492 C-28.38130575 15.70836083 -23.07024484 12.42336424 -17.78515625 9.09375 C-16.81771484 8.48660156 -15.85027344 7.87945313 -14.85351562 7.25390625 C-13.03488655 6.11105887 -11.21959715 4.96287427 -9.40820312 3.80859375 C-8.60447266 3.30457031 -7.80074219 2.80054688 -6.97265625 2.28125 C-6.27406494 1.83845703 -5.57547363 1.39566406 -4.85571289 0.93945312 C-3 0 -3 0 0 0 Z " fill="#4D5667" transform="translate(1610,526)"/>
</svg>
